<?xml version="1.0" standalone="no"?>
<!DOCTYPE svg PUBLIC "-//W3C//DTD SVG 20010904//EN"
 "http://www.w3.org/TR/2001/REC-SVG-20010904/DTD/svg10.dtd">
<svg version="1.0" xmlns="http://www.w3.org/2000/svg"
 width="1119.000000pt" height="1280.000000pt" viewBox="0 0 1119.000000 1280.000000"
 preserveAspectRatio="xMidYMid meet">

<g transform="translate(0.000000,1280.000000) scale(0.100000,-0.100000)"
fill="#000000" stroke="none">
<path d="M5187 10672 c-12 -1004 -44 -1742 -109 -2464 l-22 -248 -1834 0
-1833 0 49 -92 c27 -51 89 -167 137 -258 49 -91 89 -167 91 -169 2 -2 93 49
203 113 l200 116 1475 0 c1174 0 1476 -3 1476 -12 0 -31 -62 -460 -90 -628
-335 -1988 -1032 -3262 -2445 -4470 -424 -362 -873 -694 -1494 -1105 -154
-102 -281 -189 -281 -193 0 -4 19 -22 41 -41 l40 -33 42 18 c23 11 136 68 252
127 1325 684 2254 1301 2903 1930 61 60 116 107 122 105 5 -2 93 -83 195 -182
471 -452 840 -891 999 -1187 60 -112 87 -181 116 -299 29 -119 69 -205 117
-254 57 -57 89 -70 163 -70 134 1 254 100 378 310 99 167 135 349 97 493 -78
299 -426 608 -1070 948 -179 95 -494 245 -697 334 -82 35 -148 67 -148 70 0 4
30 40 66 80 585 649 997 1433 1258 2389 111 409 224 1022 276 1495 19 174 19
177 43 173 15 -2 24 -13 29 -38 345 -1568 850 -2857 1571 -4010 159 -253 246
-381 440 -640 469 -629 1079 -1234 1609 -1597 l97 -66 114 109 c262 251 560
428 885 524 l72 22 0 59 0 58 -42 11 c-824 208 -1524 642 -2268 1406 -839 862
-1584 2088 -2096 3450 -65 175 -244 695 -244 711 0 1 866 4 1925 5 l1926 3
-53 88 c-206 346 -607 690 -990 850 l-37 16 -217 -292 c-119 -161 -231 -311
-248 -334 l-31 -42 -1217 -1 c-1087 0 -1218 2 -1218 15 0 9 7 104 15 213 37
499 65 1254 65 1777 l0 310 251 165 c138 90 253 168 255 172 6 10 -241 194
-408 305 -312 206 -635 333 -848 333 l-47 0 -6 -578z"/>
</g>
</svg>
