<?xml version="1.0" standalone="no"?>
<!DOCTYPE svg PUBLIC "-//W3C//DTD SVG 20010904//EN"
 "http://www.w3.org/TR/2001/REC-SVG-20010904/DTD/svg10.dtd">
<svg version="1.0" xmlns="http://www.w3.org/2000/svg"
 width="1156.000000pt" height="1280.000000pt" viewBox="0 0 1156.000000 1280.000000"
 preserveAspectRatio="xMidYMid meet">

<g transform="translate(0.000000,1280.000000) scale(0.100000,-0.100000)"
fill="#000000" stroke="none">
<path d="M5096 10898 c-467 -792 -1484 -1507 -2721 -1913 -104 -34 -220 -70
-257 -80 -38 -10 -68 -21 -68 -24 0 -4 21 -24 47 -46 l47 -39 135 23 c227 37
663 128 896 185 l220 54 170 -96 c560 -315 978 -623 1187 -872 61 -72 94 -125
140 -219 110 -227 223 -297 366 -225 136 68 251 294 284 560 63 495 -390 770
-1570 955 l-144 22 224 77 c396 137 795 311 1050 458 l107 62 1695 0 c933 0
1696 -4 1696 -8 0 -4 -46 -69 -102 -144 -336 -447 -783 -879 -1339 -1294
-1398 -1043 -3427 -1901 -5737 -2426 l-103 -23 36 -42 c20 -24 45 -43 56 -43
11 0 131 20 267 45 1248 226 2445 529 3507 888 273 93 583 204 730 262 33 13
112 44 175 68 205 80 571 236 780 332 563 258 1057 531 1495 824 433 289 742
546 1067 886 82 87 94 95 317 220 265 148 242 117 190 265 -120 335 -391 731
-664 970 -85 74 -197 160 -209 160 -5 0 -464 -560 -501 -612 l-20 -27 -1460
-1 -1460 0 60 60 60 59 208 2 c114 1 207 4 206 8 0 3 -46 43 -102 87 -108 86
-290 232 -659 531 -125 100 -229 183 -231 183 -2 0 -34 -51 -71 -112z"/>
<path d="M5466 6611 c-55 -90 -188 -263 -291 -381 -698 -795 -1961 -1482
-3438 -1871 -92 -24 -167 -46 -167 -49 0 -3 14 -22 31 -43 23 -29 38 -37 62
-37 40 0 556 88 787 135 96 19 307 65 469 102 l294 67 211 -107 c704 -355
1248 -707 1532 -991 112 -113 141 -150 234 -302 19 -32 58 -81 86 -109 204
-206 431 -85 530 282 23 83 27 119 28 238 1 130 -1 145 -27 209 -116 291 -466
497 -1137 670 -219 56 -625 136 -875 171 -104 15 -196 31 -203 35 -8 4 21 16
67 29 169 46 535 166 741 243 293 109 524 209 785 339 l220 109 2252 -2 2253
-3 -81 -100 c-262 -323 -640 -693 -1024 -1001 -1731 -1390 -4531 -2548 -7784
-3220 -146 -30 -267 -56 -269 -59 -9 -8 64 -85 81 -85 10 0 154 23 320 51
1001 167 1885 353 2852 599 346 88 425 109 805 217 2658 754 4725 1763 5845
2854 l160 155 230 134 c127 73 231 133 232 135 2 1 -13 51 -32 111 -107 330
-381 741 -654 980 -119 104 -230 182 -239 168 -4 -6 -119 -151 -256 -322
l-250 -312 -1995 0 c-1097 0 -1991 4 -1985 8 5 5 45 38 89 74 44 36 93 80 109
97 l30 31 208 0 c114 0 208 3 208 8 -1 4 -65 58 -143 119 -78 62 -302 241
-497 397 -195 157 -358 285 -361 286 -3 0 -23 -27 -43 -59z"/>
</g>
</svg>
