<?xml version="1.0" standalone="no"?>
<!DOCTYPE svg PUBLIC "-//W3C//DTD SVG 20010904//EN"
 "http://www.w3.org/TR/2001/REC-SVG-20010904/DTD/svg10.dtd">
<svg version="1.0" xmlns="http://www.w3.org/2000/svg"
 width="1166.000000pt" height="1280.000000pt" viewBox="0 0 1166.000000 1280.000000"
 preserveAspectRatio="xMidYMid meet">

<g transform="translate(0.000000,1280.000000) scale(0.100000,-0.100000)"
fill="#000000" stroke="none">
<path d="M6480 11177 c0 -25 -49 -375 -85 -607 -130 -835 -309 -1588 -546
-2294 -230 -684 -467 -1198 -763 -1651 l-91 -139 -3 434 -2 435 232 232 233
233 -28 53 c-63 120 -248 300 -437 425 -104 68 -310 175 -385 198 -54 17 -56
17 -69 -2 -8 -10 -74 -93 -147 -184 -74 -91 -178 -220 -232 -287 -54 -67 -104
-127 -111 -132 -9 -8 -253 -10 -796 -9 l-783 3 66 72 c177 193 367 474 503
745 125 250 258 613 334 918 22 90 44 167 48 170 5 3 99 65 210 139 111 74
202 137 202 142 0 4 -36 40 -79 81 -136 125 -377 254 -656 351 -146 50 -342
103 -351 94 -3 -3 -14 -99 -25 -214 -86 -935 -262 -1826 -464 -2348 -26 -66
-49 -128 -52 -137 -9 -31 -35 -20 -153 63 -140 98 -293 191 -419 254 -165 82
-385 145 -511 145 l-60 0 0 -3270 0 -3270 39 0 c70 0 213 30 285 60 137 57
271 148 411 279 l55 50 0 146 0 145 1175 0 1175 0 0 -341 0 -342 81 6 c217 17
398 103 612 292 l97 86 0 2043 0 2043 43 34 c403 323 801 805 1143 1384 175
298 399 767 530 1112 l39 103 1533 0 1532 0 0 -1027 c0 -2414 -48 -3594 -176
-4366 -30 -183 -44 -246 -94 -417 -164 -564 -325 -920 -501 -1105 -113 -119
-228 -163 -296 -113 -32 23 -111 117 -253 304 -97 127 -310 384 -425 512 l-90
100 -42 -40 -41 -41 83 -136 c483 -795 741 -1276 776 -1448 l13 -63 210 0
c160 0 225 4 275 16 232 58 524 303 743 624 230 337 370 712 437 1170 116 791
161 2066 161 4575 l0 1210 235 235 235 235 -37 65 c-42 71 -194 235 -287 309
-83 66 -196 140 -297 195 -81 43 -279 130 -284 124 -37 -49 -433 -540 -468
-580 l-49 -58 -1394 0 c-767 0 -1394 4 -1394 8 0 5 20 73 45 151 70 221 142
491 201 755 30 133 54 244 54 247 0 4 96 69 213 145 116 75 213 138 215 140
10 7 -40 62 -107 115 -180 144 -463 279 -786 373 -122 36 -205 53 -205 43z
m-2280 -4632 l0 -1055 -1175 0 -1175 0 0 960 0 960 142 95 143 95 1032 0 1033
0 0 -1055z m-2 -2547 l-3 -1213 -1170 0 -1170 0 -3 1213 -2 1212 1175 0 1175
0 -2 -1212z"/>
<path d="M6922 7506 c-28 -11 -52 -24 -52 -28 0 -3 47 -93 105 -200 377 -689
690 -1403 790 -1798 52 -204 57 -243 65 -465 9 -248 24 -319 83 -397 51 -66
107 -93 192 -92 128 2 247 66 396 214 93 92 129 146 166 248 133 365 -153 921
-886 1727 -170 186 -573 598 -711 725 l-95 88 -53 -22z"/>
</g>
</svg>
