<svg width="218" height="181" viewBox="0 0 218 181" fill="none" xmlns="http://www.w3.org/2000/svg">
<path d="M205 181H218V106.5H205V181Z" fill="url(#paint0_linear_174_5)"/>
<path d="M136 181H150V106.5H136V181Z" fill="url(#paint1_linear_174_5)"/>
<path d="M122 0H109V151H122V0Z" fill="url(#paint2_linear_174_5)"/>
<path d="M137.571 112.665H217.998V101.053L190.798 86.1362H109.197V96.7144L137.571 112.665Z" fill="url(#paint3_linear_174_5)"/>
<path d="M192 0H179V151H192V0Z" fill="url(#paint4_linear_174_5)"/>
<path d="M109 64.0647V77.0691H192.31V64.0647H109Z" fill="url(#paint5_linear_174_5)"/>
<path d="M109 11.1741V24.1785L192.31 24.1785V11.1741L109 11.1741Z" fill="url(#paint6_linear_174_5)"/>
<path d="M109 37.7791V50.7834L192.31 50.7834V37.7791L109 37.7791Z" fill="url(#paint7_linear_174_5)"/>
<path d="M114.598 46.1206C115.649 46.1206 116.502 45.2681 116.502 44.2166C116.502 43.165 115.649 42.3125 114.598 42.3125C113.546 42.3125 112.694 43.165 112.694 44.2166C112.694 45.2681 113.546 46.1206 114.598 46.1206Z" fill="white"/>
<path d="M114.766 72.1463C115.817 72.1463 116.67 71.2938 116.67 70.2422C116.67 69.1906 115.817 68.3381 114.766 68.3381C113.714 68.3381 112.862 69.1906 112.862 70.2422C112.862 71.2938 113.714 72.1463 114.766 72.1463Z" fill="white"/>
<path d="M114.652 18.9197C115.703 18.9197 116.556 18.0672 116.556 17.0156C116.556 15.964 115.703 15.1116 114.652 15.1116C113.6 15.1116 112.748 15.964 112.748 17.0156C112.748 18.0672 113.6 18.9197 114.652 18.9197Z" fill="white"/>
<path d="M185.314 72.1731C186.365 72.1731 187.218 71.3206 187.218 70.2691C187.218 69.2175 186.365 68.365 185.314 68.365C184.262 68.365 183.41 69.2175 183.41 70.2691C183.41 71.3206 184.262 72.1731 185.314 72.1731Z" fill="white"/>
<path d="M184.951 46.1206C186.003 46.1206 186.855 45.2681 186.855 44.2166C186.855 43.165 186.003 42.3125 184.951 42.3125C183.899 42.3125 183.047 43.165 183.047 44.2166C183.047 45.2681 183.899 46.1206 184.951 46.1206Z" fill="white"/>
<path d="M185.676 18.9197C186.728 18.9197 187.58 18.0672 187.58 17.0156C187.58 15.964 186.728 15.1116 185.676 15.1116C184.625 15.1116 183.772 15.964 183.772 17.0156C183.772 18.0672 184.625 18.9197 185.676 18.9197Z" fill="white"/>
<path d="M96 181H109L109 106.5H96L96 181Z" fill="url(#paint8_linear_174_5)"/>
<path d="M27 181H41L41 106.5H27L27 181Z" fill="url(#paint9_linear_174_5)"/>
<path d="M13 0H0V151H13V0Z" fill="url(#paint10_linear_174_5)"/>
<path d="M28.5711 112.665H108.998V101.053L81.7975 86.1362H0.196533V96.7144L28.5711 112.665Z" fill="url(#paint11_linear_174_5)"/>
<path d="M83 0H70V151H83V0Z" fill="url(#paint12_linear_174_5)"/>
<path d="M0 64.0647L0 77.0691H83.3103V64.0647H0Z" fill="url(#paint13_linear_174_5)"/>
<path d="M0 11.1741L0 24.1785L83.3103 24.1785V11.1741L0 11.1741Z" fill="url(#paint14_linear_174_5)"/>
<path d="M0 37.7791L0 50.7834L83.3103 50.7834V37.7791L0 37.7791Z" fill="url(#paint15_linear_174_5)"/>
<path d="M5.59791 46.1206C6.64949 46.1206 7.50197 45.2681 7.50197 44.2166C7.50197 43.165 6.64949 42.3125 5.59791 42.3125C4.54632 42.3125 3.69385 43.165 3.69385 44.2166C3.69385 45.2681 4.54632 46.1206 5.59791 46.1206Z" fill="white"/>
<path d="M5.76588 72.1463C6.81746 72.1463 7.66994 71.2938 7.66994 70.2422C7.66994 69.1906 6.81746 68.3381 5.76588 68.3381C4.71429 68.3381 3.86182 69.1906 3.86182 70.2422C3.86182 71.2938 4.71429 72.1463 5.76588 72.1463Z" fill="white"/>
<path d="M5.65186 18.9197C6.70345 18.9197 7.55593 18.0672 7.55593 17.0156C7.55593 15.964 6.70345 15.1116 5.65186 15.1116C4.60028 15.1116 3.7478 15.964 3.7478 17.0156C3.7478 18.0672 4.60028 18.9197 5.65186 18.9197Z" fill="white"/>
<path d="M76.3137 72.1731C77.3653 72.1731 78.2178 71.3206 78.2178 70.2691C78.2178 69.2175 77.3653 68.365 76.3137 68.365C75.2622 68.365 74.4097 69.2175 74.4097 70.2691C74.4097 71.3206 75.2622 72.1731 76.3137 72.1731Z" fill="white"/>
<path d="M75.9509 46.1206C77.0025 46.1206 77.855 45.2681 77.855 44.2166C77.855 43.165 77.0025 42.3125 75.9509 42.3125C74.8994 42.3125 74.0469 43.165 74.0469 44.2166C74.0469 45.2681 74.8994 46.1206 75.9509 46.1206Z" fill="white"/>
<path d="M76.6763 18.9197C77.7279 18.9197 78.5803 18.0672 78.5803 17.0156C78.5803 15.964 77.7279 15.1116 76.6763 15.1116C75.6247 15.1116 74.7722 15.964 74.7722 17.0156C74.7722 18.0672 75.6247 18.9197 76.6763 18.9197Z" fill="white"/>
<defs>
<linearGradient id="paint0_linear_174_5" x1="218" y1="143.751" x2="204.998" y2="143.751" gradientUnits="userSpaceOnUse">
<stop stop-color="#A2CDC3"/>
<stop offset="0.23" stop-color="#A2CDC3" stop-opacity="0.99"/>
<stop offset="0.38" stop-color="#A2CDC3" stop-opacity="0.95"/>
<stop offset="0.49" stop-color="#A2CDC3" stop-opacity="0.89"/>
<stop offset="0.6" stop-color="#A2CDC3" stop-opacity="0.8"/>
<stop offset="0.69" stop-color="#A2CDC3" stop-opacity="0.68"/>
<stop offset="0.78" stop-color="#A2CDC3" stop-opacity="0.54"/>
<stop offset="0.86" stop-color="#A2CDC3" stop-opacity="0.37"/>
<stop offset="0.94" stop-color="#A2CDC3" stop-opacity="0.18"/>
<stop offset="1" stop-color="white" stop-opacity="0"/>
</linearGradient>
<linearGradient id="paint1_linear_174_5" x1="150" y1="143.751" x2="136" y2="143.751" gradientUnits="userSpaceOnUse">
<stop stop-color="#A2CDC3"/>
<stop offset="0.23" stop-color="#A2CDC3" stop-opacity="0.99"/>
<stop offset="0.38" stop-color="#A2CDC3" stop-opacity="0.95"/>
<stop offset="0.49" stop-color="#A2CDC3" stop-opacity="0.89"/>
<stop offset="0.6" stop-color="#A2CDC3" stop-opacity="0.8"/>
<stop offset="0.69" stop-color="#A2CDC3" stop-opacity="0.68"/>
<stop offset="0.78" stop-color="#A2CDC3" stop-opacity="0.54"/>
<stop offset="0.86" stop-color="#A2CDC3" stop-opacity="0.37"/>
<stop offset="0.94" stop-color="#A2CDC3" stop-opacity="0.18"/>
<stop offset="1" stop-color="white" stop-opacity="0"/>
</linearGradient>
<linearGradient id="paint2_linear_174_5" x1="109" y1="75.4992" x2="122" y2="75.4992" gradientUnits="userSpaceOnUse">
<stop stop-color="#A2CDC3"/>
<stop offset="0.23" stop-color="#A2CDC3" stop-opacity="0.99"/>
<stop offset="0.38" stop-color="#A2CDC3" stop-opacity="0.95"/>
<stop offset="0.49" stop-color="#A2CDC3" stop-opacity="0.89"/>
<stop offset="0.6" stop-color="#A2CDC3" stop-opacity="0.8"/>
<stop offset="0.69" stop-color="#A2CDC3" stop-opacity="0.68"/>
<stop offset="0.78" stop-color="#A2CDC3" stop-opacity="0.54"/>
<stop offset="0.86" stop-color="#A2CDC3" stop-opacity="0.37"/>
<stop offset="0.94" stop-color="#A2CDC3" stop-opacity="0.18"/>
<stop offset="1" stop-color="white" stop-opacity="0"/>
</linearGradient>
<linearGradient id="paint3_linear_174_5" x1="163.598" y1="111.826" x2="163.598" y2="86.1362" gradientUnits="userSpaceOnUse">
<stop stop-color="#A2CDC3"/>
<stop offset="0.23" stop-color="#A2CDC3" stop-opacity="0.99"/>
<stop offset="0.38" stop-color="#A2CDC3" stop-opacity="0.95"/>
<stop offset="0.49" stop-color="#A2CDC3" stop-opacity="0.89"/>
<stop offset="0.6" stop-color="#A2CDC3" stop-opacity="0.8"/>
<stop offset="0.69" stop-color="#A2CDC3" stop-opacity="0.68"/>
<stop offset="0.78" stop-color="#A2CDC3" stop-opacity="0.54"/>
<stop offset="0.86" stop-color="#A2CDC3" stop-opacity="0.37"/>
<stop offset="0.94" stop-color="#A2CDC3" stop-opacity="0.18"/>
<stop offset="1" stop-color="white" stop-opacity="0"/>
</linearGradient>
<linearGradient id="paint4_linear_174_5" x1="179" y1="75.5" x2="192" y2="75.5" gradientUnits="userSpaceOnUse">
<stop stop-color="#A2CDC3"/>
<stop offset="0.23" stop-color="#A2CDC3" stop-opacity="0.99"/>
<stop offset="0.38" stop-color="#A2CDC3" stop-opacity="0.95"/>
<stop offset="0.49" stop-color="#A2CDC3" stop-opacity="0.89"/>
<stop offset="0.6" stop-color="#A2CDC3" stop-opacity="0.8"/>
<stop offset="0.69" stop-color="#A2CDC3" stop-opacity="0.68"/>
<stop offset="0.78" stop-color="#A2CDC3" stop-opacity="0.54"/>
<stop offset="0.86" stop-color="#A2CDC3" stop-opacity="0.37"/>
<stop offset="0.94" stop-color="#A2CDC3" stop-opacity="0.18"/>
<stop offset="1" stop-color="white" stop-opacity="0"/>
</linearGradient>
<linearGradient id="paint5_linear_174_5" x1="150.654" y1="64.0647" x2="150.654" y2="77.0708" gradientUnits="userSpaceOnUse">
<stop stop-color="#A2CDC3"/>
<stop offset="0.23" stop-color="#A2CDC3" stop-opacity="0.99"/>
<stop offset="0.38" stop-color="#A2CDC3" stop-opacity="0.95"/>
<stop offset="0.49" stop-color="#A2CDC3" stop-opacity="0.89"/>
<stop offset="0.6" stop-color="#A2CDC3" stop-opacity="0.8"/>
<stop offset="0.69" stop-color="#A2CDC3" stop-opacity="0.68"/>
<stop offset="0.78" stop-color="#A2CDC3" stop-opacity="0.54"/>
<stop offset="0.86" stop-color="#A2CDC3" stop-opacity="0.37"/>
<stop offset="0.94" stop-color="#A2CDC3" stop-opacity="0.18"/>
<stop offset="1" stop-color="white" stop-opacity="0"/>
</linearGradient>
<linearGradient id="paint6_linear_174_5" x1="150.654" y1="11.1741" x2="150.654" y2="24.1801" gradientUnits="userSpaceOnUse">
<stop stop-color="#A2CDC3"/>
<stop offset="0.23" stop-color="#A2CDC3" stop-opacity="0.99"/>
<stop offset="0.38" stop-color="#A2CDC3" stop-opacity="0.95"/>
<stop offset="0.49" stop-color="#A2CDC3" stop-opacity="0.89"/>
<stop offset="0.6" stop-color="#A2CDC3" stop-opacity="0.8"/>
<stop offset="0.69" stop-color="#A2CDC3" stop-opacity="0.68"/>
<stop offset="0.78" stop-color="#A2CDC3" stop-opacity="0.54"/>
<stop offset="0.86" stop-color="#A2CDC3" stop-opacity="0.37"/>
<stop offset="0.94" stop-color="#A2CDC3" stop-opacity="0.18"/>
<stop offset="1" stop-color="white" stop-opacity="0"/>
</linearGradient>
<linearGradient id="paint7_linear_174_5" x1="150.656" y1="37.7807" x2="150.656" y2="50.7851" gradientUnits="userSpaceOnUse">
<stop stop-color="#A2CDC3"/>
<stop offset="0.23" stop-color="#A2CDC3" stop-opacity="0.99"/>
<stop offset="0.38" stop-color="#A2CDC3" stop-opacity="0.95"/>
<stop offset="0.49" stop-color="#A2CDC3" stop-opacity="0.89"/>
<stop offset="0.6" stop-color="#A2CDC3" stop-opacity="0.8"/>
<stop offset="0.69" stop-color="#A2CDC3" stop-opacity="0.68"/>
<stop offset="0.78" stop-color="#A2CDC3" stop-opacity="0.54"/>
<stop offset="0.86" stop-color="#A2CDC3" stop-opacity="0.37"/>
<stop offset="0.94" stop-color="#A2CDC3" stop-opacity="0.18"/>
<stop offset="1" stop-color="white" stop-opacity="0"/>
</linearGradient>
<linearGradient id="paint8_linear_174_5" x1="109" y1="143.751" x2="95.9983" y2="143.751" gradientUnits="userSpaceOnUse">
<stop stop-color="#E4AFC5"/>
<stop offset="0.23" stop-color="#E4B0C6" stop-opacity="0.99"/>
<stop offset="0.38" stop-color="#E5B3C8" stop-opacity="0.95"/>
<stop offset="0.49" stop-color="#E7B8CB" stop-opacity="0.89"/>
<stop offset="0.6" stop-color="#E9BFD1" stop-opacity="0.8"/>
<stop offset="0.69" stop-color="#EDC8D7" stop-opacity="0.68"/>
<stop offset="0.78" stop-color="#F0D4E0" stop-opacity="0.54"/>
<stop offset="0.86" stop-color="#F5E1E9" stop-opacity="0.37"/>
<stop offset="0.94" stop-color="#FAF0F4" stop-opacity="0.18"/>
<stop offset="1" stop-color="white" stop-opacity="0"/>
</linearGradient>
<linearGradient id="paint9_linear_174_5" x1="41" y1="143.751" x2="27" y2="143.751" gradientUnits="userSpaceOnUse">
<stop stop-color="#E4AFC5"/>
<stop offset="0.23" stop-color="#E4B0C6" stop-opacity="0.99"/>
<stop offset="0.38" stop-color="#E5B3C8" stop-opacity="0.95"/>
<stop offset="0.49" stop-color="#E7B8CB" stop-opacity="0.89"/>
<stop offset="0.6" stop-color="#E9BFD1" stop-opacity="0.8"/>
<stop offset="0.69" stop-color="#EDC8D7" stop-opacity="0.68"/>
<stop offset="0.78" stop-color="#F0D4E0" stop-opacity="0.54"/>
<stop offset="0.86" stop-color="#F5E1E9" stop-opacity="0.37"/>
<stop offset="0.94" stop-color="#FAF0F4" stop-opacity="0.18"/>
<stop offset="1" stop-color="white" stop-opacity="0"/>
</linearGradient>
<linearGradient id="paint10_linear_174_5" x1="0" y1="75.4992" x2="13" y2="75.4992" gradientUnits="userSpaceOnUse">
<stop stop-color="#E4AFC5"/>
<stop offset="0.23" stop-color="#E4B0C6" stop-opacity="0.99"/>
<stop offset="0.38" stop-color="#E5B3C8" stop-opacity="0.95"/>
<stop offset="0.49" stop-color="#E7B8CB" stop-opacity="0.89"/>
<stop offset="0.6" stop-color="#E9BFD1" stop-opacity="0.8"/>
<stop offset="0.69" stop-color="#EDC8D7" stop-opacity="0.68"/>
<stop offset="0.78" stop-color="#F0D4E0" stop-opacity="0.54"/>
<stop offset="0.86" stop-color="#F5E1E9" stop-opacity="0.37"/>
<stop offset="0.94" stop-color="#FAF0F4" stop-opacity="0.18"/>
<stop offset="1" stop-color="white" stop-opacity="0"/>
</linearGradient>
<linearGradient id="paint11_linear_174_5" x1="54.5983" y1="111.826" x2="54.5983" y2="86.1362" gradientUnits="userSpaceOnUse">
<stop stop-color="#E4AFC5"/>
<stop offset="0.23" stop-color="#E4B0C6" stop-opacity="0.99"/>
<stop offset="0.38" stop-color="#E5B3C8" stop-opacity="0.95"/>
<stop offset="0.49" stop-color="#E7B8CB" stop-opacity="0.89"/>
<stop offset="0.6" stop-color="#E9BFD1" stop-opacity="0.8"/>
<stop offset="0.69" stop-color="#EDC8D7" stop-opacity="0.68"/>
<stop offset="0.78" stop-color="#F0D4E0" stop-opacity="0.54"/>
<stop offset="0.86" stop-color="#F5E1E9" stop-opacity="0.37"/>
<stop offset="0.94" stop-color="#FAF0F4" stop-opacity="0.18"/>
<stop offset="1" stop-color="white" stop-opacity="0"/>
</linearGradient>
<linearGradient id="paint12_linear_174_5" x1="70" y1="75.5" x2="83" y2="75.5" gradientUnits="userSpaceOnUse">
<stop stop-color="#E4AFC5"/>
<stop offset="0.23" stop-color="#E4B0C6" stop-opacity="0.99"/>
<stop offset="0.38" stop-color="#E5B3C8" stop-opacity="0.95"/>
<stop offset="0.49" stop-color="#E7B8CB" stop-opacity="0.89"/>
<stop offset="0.6" stop-color="#E9BFD1" stop-opacity="0.8"/>
<stop offset="0.69" stop-color="#EDC8D7" stop-opacity="0.68"/>
<stop offset="0.78" stop-color="#F0D4E0" stop-opacity="0.54"/>
<stop offset="0.86" stop-color="#F5E1E9" stop-opacity="0.37"/>
<stop offset="0.94" stop-color="#FAF0F4" stop-opacity="0.18"/>
<stop offset="1" stop-color="white" stop-opacity="0"/>
</linearGradient>
<linearGradient id="paint13_linear_174_5" x1="41.6543" y1="64.0647" x2="41.6543" y2="77.0708" gradientUnits="userSpaceOnUse">
<stop stop-color="#E4AFC5"/>
<stop offset="0.23" stop-color="#E4B0C6" stop-opacity="0.99"/>
<stop offset="0.38" stop-color="#E5B3C8" stop-opacity="0.95"/>
<stop offset="0.49" stop-color="#E7B8CB" stop-opacity="0.89"/>
<stop offset="0.6" stop-color="#E9BFD1" stop-opacity="0.8"/>
<stop offset="0.69" stop-color="#EDC8D7" stop-opacity="0.68"/>
<stop offset="0.78" stop-color="#F0D4E0" stop-opacity="0.54"/>
<stop offset="0.86" stop-color="#F5E1E9" stop-opacity="0.37"/>
<stop offset="0.94" stop-color="#FAF0F4" stop-opacity="0.18"/>
<stop offset="1" stop-color="white" stop-opacity="0"/>
</linearGradient>
<linearGradient id="paint14_linear_174_5" x1="41.6543" y1="11.1741" x2="41.6543" y2="24.1801" gradientUnits="userSpaceOnUse">
<stop stop-color="#E4AFC5"/>
<stop offset="0.23" stop-color="#E4B0C6" stop-opacity="0.99"/>
<stop offset="0.38" stop-color="#E5B3C8" stop-opacity="0.95"/>
<stop offset="0.49" stop-color="#E7B8CB" stop-opacity="0.89"/>
<stop offset="0.6" stop-color="#E9BFD1" stop-opacity="0.8"/>
<stop offset="0.69" stop-color="#EDC8D7" stop-opacity="0.68"/>
<stop offset="0.78" stop-color="#F0D4E0" stop-opacity="0.54"/>
<stop offset="0.86" stop-color="#F5E1E9" stop-opacity="0.37"/>
<stop offset="0.94" stop-color="#FAF0F4" stop-opacity="0.18"/>
<stop offset="1" stop-color="white" stop-opacity="0"/>
</linearGradient>
<linearGradient id="paint15_linear_174_5" x1="41.656" y1="37.7807" x2="41.656" y2="50.7851" gradientUnits="userSpaceOnUse">
<stop stop-color="#E4AFC5"/>
<stop offset="0.23" stop-color="#E4B0C6" stop-opacity="0.99"/>
<stop offset="0.38" stop-color="#E5B3C8" stop-opacity="0.95"/>
<stop offset="0.49" stop-color="#E7B8CB" stop-opacity="0.89"/>
<stop offset="0.6" stop-color="#E9BFD1" stop-opacity="0.8"/>
<stop offset="0.69" stop-color="#EDC8D7" stop-opacity="0.68"/>
<stop offset="0.78" stop-color="#F0D4E0" stop-opacity="0.54"/>
<stop offset="0.86" stop-color="#F5E1E9" stop-opacity="0.37"/>
<stop offset="0.94" stop-color="#FAF0F4" stop-opacity="0.18"/>
<stop offset="1" stop-color="white" stop-opacity="0"/>
</linearGradient>
</defs>
</svg>
