<?xml version="1.0" standalone="no"?>
<!DOCTYPE svg PUBLIC "-//W3C//DTD SVG 20010904//EN"
 "http://www.w3.org/TR/2001/REC-SVG-20010904/DTD/svg10.dtd">
<svg version="1.0" xmlns="http://www.w3.org/2000/svg"
 width="1098.000000pt" height="1280.000000pt" viewBox="0 0 1098.000000 1280.000000"
 preserveAspectRatio="xMidYMid meet">

<g transform="translate(0.000000,1280.000000) scale(0.100000,-0.100000)"
fill="#000000" stroke="none">
<path d="M4687 10975 c-20 -14 -37 -29 -37 -34 0 -4 39 -55 86 -112 422 -507
684 -921 769 -1217 17 -56 29 -130 34 -212 11 -160 39 -224 115 -271 30 -19
11 -19 -1146 -19 -648 0 -1178 -2 -1178 -4 0 -7 187 -363 212 -403 l19 -33 37
19 c20 11 96 54 167 98 l130 78 1159 3 c638 1 1163 -1 1167 -5 9 -10 -63 -253
-115 -388 -98 -254 -254 -521 -393 -673 l-48 -53 -252 0 -251 0 -124 84 c-333
228 -594 337 -804 337 l-54 0 0 -2530 0 -2530 63 0 c176 1 382 100 564 273
l73 70 0 128 0 129 1775 0 1775 0 0 -300 0 -300 63 0 c177 0 387 103 569 278
l68 65 0 1916 0 1916 207 207 207 207 -46 68 c-87 131 -210 247 -380 357 -80
52 -303 166 -354 180 -18 6 -33 -8 -92 -81 -38 -48 -139 -175 -224 -281 l-155
-192 -1139 0 c-626 0 -1143 0 -1148 0 -4 0 34 28 85 61 144 95 312 235 444
371 187 191 314 365 425 581 l54 107 1544 0 1543 0 -28 51 c-50 90 -181 255
-281 355 -105 104 -198 179 -335 269 -89 58 -263 145 -288 145 -8 -1 -111
-130 -229 -288 l-215 -287 -1465 -2 -1465 -2 65 34 c85 43 159 110 233 210
113 152 153 262 144 394 -17 257 -278 532 -822 869 -198 123 -664 382 -686
382 -2 0 -21 -11 -42 -25z m3738 -4005 l0 -525 -1772 -3 -1773 -2 0 443 0 442
133 87 132 88 1640 -3 1640 -2 0 -525z m3 -1212 l2 -438 -1775 0 -1775 0 0
440 0 440 1773 -2 1772 -3 3 -437z m2 -1243 l0 -555 -1775 0 -1775 0 0 555 0
555 1775 0 1775 0 0 -555z"/>
<path d="M8096 10958 c-3 -7 -16 -68 -31 -136 -74 -343 -203 -692 -358 -971
-127 -227 -328 -485 -465 -596 l-62 -50 35 -35 35 -35 112 39 c566 195 1060
576 1289 993 l40 71 189 124 c104 67 189 127 189 131 1 4 -23 31 -51 58 -145
139 -454 291 -770 379 -62 17 -121 34 -131 36 -9 3 -19 -1 -21 -8z"/>
<path d="M1463 9998 c-21 -16 -40 -31 -41 -33 -2 -2 30 -39 70 -82 459 -481
804 -962 902 -1255 14 -42 33 -127 41 -189 18 -143 47 -205 112 -248 59 -39
125 -42 199 -7 142 66 327 320 364 501 72 351 -321 720 -1255 1176 -143 70
-281 136 -307 147 l-47 20 -38 -30z"/>
<path d="M2338 7339 l-223 -281 -627 1 c-428 1 -628 -2 -628 -9 0 -6 46 -97
102 -203 56 -105 107 -202 113 -215 6 -13 16 -20 24 -17 8 3 87 48 176 100
l162 95 407 0 406 0 -2 -1682 -3 -1683 -680 -382 c-644 -363 -807 -455 -1057
-596 -59 -34 -105 -64 -102 -68 2 -4 104 -87 225 -185 122 -99 273 -221 335
-271 63 -51 120 -93 128 -93 7 0 224 197 482 437 795 740 876 816 949 885 l71
67 79 -107 c44 -59 142 -170 220 -247 632 -631 1670 -1025 3200 -1214 769 -95
1698 -141 2881 -141 l541 0 48 72 c301 455 607 742 975 915 l100 47 0 54 0 54
-37 -6 c-57 -9 -834 -82 -1118 -105 -480 -39 -1069 -74 -1539 -91 -357 -13
-1254 -13 -1546 0 -1565 69 -2637 317 -3335 773 -49 32 -96 66 -102 75 -10 12
-13 356 -13 1641 l0 1625 210 211 210 211 -49 75 c-101 154 -323 336 -546 447
-79 40 -199 92 -212 92 -1 0 -102 -126 -225 -281z"/>
</g>
</svg>
