<?xml version="1.0" standalone="no"?>
<!DOCTYPE svg PUBLIC "-//W3C//DTD SVG 20010904//EN"
 "http://www.w3.org/TR/2001/REC-SVG-20010904/DTD/svg10.dtd">
<svg version="1.0" xmlns="http://www.w3.org/2000/svg"
 width="1109.000000pt" height="997.000000pt" viewBox="0 0 1109.000000 997.000000"
 preserveAspectRatio="xMidYMid meet">

<g transform="translate(0.000000,997.000000) scale(0.100000,-0.100000)"
fill="#000000" stroke="none">
<path d="M6421 9345 c-30 -12 -70 -37 -88 -54 -30 -29 -33 -37 -33 -90 0 -67
21 -123 85 -221 50 -77 54 -84 127 -232 58 -117 72 -150 112 -273 41 -126 57
-208 71 -368 16 -177 22 -774 8 -788 -5 -5 -29 -13 -53 -18 -25 -5 -90 -19
-145 -31 -55 -12 -120 -26 -145 -30 -25 -5 -79 -16 -120 -24 -41 -8 -131 -24
-200 -36 -69 -11 -163 -27 -210 -35 -47 -8 -107 -17 -135 -20 -124 -16 -242
-67 -269 -117 -17 -32 -17 -36 -2 -65 8 -17 28 -41 43 -52 16 -11 33 -24 38
-29 14 -11 83 -48 125 -66 265 -115 595 -114 1008 1 61 17 64 17 77 0 19 -27
29 -390 21 -787 -7 -349 -11 -410 -30 -415 -20 -5 -159 -34 -266 -56 -115 -22
-262 -53 -355 -74 -33 -8 -107 -23 -165 -35 -58 -12 -132 -28 -165 -35 -33 -8
-105 -24 -160 -35 -55 -12 -127 -28 -160 -35 -33 -8 -105 -24 -160 -36 -55
-11 -125 -27 -155 -34 -30 -8 -100 -23 -155 -35 -55 -12 -122 -28 -150 -35
-27 -8 -70 -17 -95 -21 -95 -14 -150 -62 -136 -117 10 -42 87 -110 170 -151
145 -72 359 -105 491 -77 22 5 67 14 100 21 33 6 65 15 70 20 6 4 26 13 45 18
19 6 67 22 105 37 131 49 387 120 590 164 55 12 130 29 166 37 78 17 106 18
114 4 5 -8 -44 -96 -170 -309 -5 -9 -46 -70 -90 -135 -44 -65 -84 -125 -90
-134 -5 -9 -26 -37 -45 -63 -19 -25 -42 -56 -50 -69 -22 -34 -193 -251 -284
-360 -78 -95 -159 -186 -291 -329 -89 -97 -484 -492 -595 -595 -47 -44 -107
-100 -135 -125 -45 -42 -153 -136 -229 -201 -16 -14 -37 -32 -46 -40 -9 -8
-36 -31 -60 -51 -25 -20 -56 -47 -70 -59 -14 -12 -45 -39 -70 -59 -25 -20 -49
-41 -55 -47 -11 -13 -489 -387 -580 -455 -33 -24 -65 -48 -71 -54 -6 -5 -22
-17 -34 -25 -65 -44 -158 -122 -177 -149 -34 -45 -30 -74 12 -94 80 -38 274
-8 452 69 158 70 422 209 572 302 20 12 43 25 51 29 8 4 20 11 25 15 17 14 86
58 90 58 9 0 234 156 315 219 342 263 768 675 1160 1120 36 40 70 79 75 85 6
6 42 47 79 91 38 44 74 85 80 90 6 6 40 46 76 90 35 44 67 82 70 85 3 3 35 41
70 85 35 44 67 82 70 85 4 3 44 52 89 110 46 58 88 105 95 105 8 0 11 -125 10
-480 -1 -456 -15 -814 -45 -1155 -6 -63 -14 -164 -19 -225 -27 -311 -100 -739
-153 -895 -73 -212 -71 -519 4 -815 40 -157 58 -218 94 -305 7 -19 26 -66 41
-105 50 -131 91 -189 165 -233 54 -32 78 -28 151 27 135 102 220 273 266 531
19 109 18 46 14 2364 -1 830 0 1511 2 1514 12 11 44 -13 66 -50 14 -22 30 -46
35 -52 6 -6 30 -40 53 -75 73 -108 87 -126 100 -134 6 -4 12 -13 12 -19 0 -6
48 -75 108 -154 59 -80 145 -195 190 -257 98 -132 243 -323 290 -381 17 -23
36 -45 40 -51 4 -5 34 -46 66 -90 33 -44 66 -88 75 -97 19 -20 26 -29 65 -83
16 -22 34 -44 40 -50 6 -5 54 -64 106 -130 102 -129 119 -149 165 -204 17 -20
48 -58 70 -86 63 -80 146 -164 193 -196 24 -16 45 -29 47 -29 2 0 24 -13 48
-29 119 -81 362 -133 772 -165 232 -19 771 -22 970 -6 272 22 341 29 358 36
14 5 17 20 17 80 l0 74 -112 54 c-62 30 -140 66 -173 81 -57 26 -114 53 -385
182 -63 31 -167 80 -230 110 -63 30 -122 58 -130 64 -8 5 -22 12 -30 15 -40
16 -627 312 -715 360 -55 30 -113 61 -130 70 -16 8 -48 26 -70 39 -22 13 -47
27 -55 31 -23 12 -174 117 -310 217 -87 64 -238 183 -250 197 -3 3 -39 33 -80
67 -41 33 -90 73 -109 89 -283 241 -489 429 -626 573 -123 129 -340 347 -435
436 l-53 50 7 73 c7 93 17 110 64 117 20 3 75 12 122 20 47 8 159 24 250 35
91 11 215 27 275 35 61 9 160 20 220 26 61 5 119 12 130 15 11 2 70 8 130 13
61 5 175 17 255 25 80 9 215 22 300 31 462 43 541 54 578 77 77 47 94 92 62
165 -19 43 -101 133 -121 133 -4 0 -14 6 -21 13 -16 15 -181 97 -195 97 -6 0
-24 6 -40 14 -74 38 -330 86 -456 86 -73 0 -303 -40 -402 -70 -96 -28 -267
-75 -365 -100 -25 -6 -67 -17 -95 -25 -27 -7 -86 -23 -130 -35 -44 -12 -102
-28 -130 -35 -27 -8 -86 -24 -130 -35 -44 -12 -100 -28 -125 -35 -92 -29 -143
-37 -152 -23 -9 15 -8 786 1 1038 l6 165 90 28 c50 16 115 36 145 44 76 22
134 39 210 61 36 11 99 29 140 40 41 12 127 37 190 56 63 19 126 36 140 39 14
3 39 10 55 16 31 11 112 35 255 76 240 68 276 83 304 123 20 29 26 50 26 88 0
45 -4 54 -40 92 -22 23 -55 49 -73 58 -17 9 -34 20 -37 23 -9 12 -93 42 -190
68 -83 22 -109 24 -205 20 -109 -5 -239 -29 -385 -69 -147 -41 -250 -73 -285
-89 -11 -5 -33 -13 -50 -18 -16 -6 -61 -21 -100 -36 -139 -51 -156 -55 -162
-38 -10 26 30 386 62 562 8 46 27 129 41 185 14 55 30 119 34 142 5 22 21 67
35 100 70 155 74 278 11 339 -26 25 -115 96 -138 110 -45 27 -223 151 -226
158 -2 4 -8 7 -12 7 -5 0 -56 30 -114 68 -58 37 -114 72 -123 77 -10 6 -37 23
-60 38 -111 71 -245 87 -352 42z"/>
<path d="M3565 7102 c-106 -24 -174 -50 -330 -127 -71 -35 -173 -80 -225 -100
-52 -20 -111 -43 -130 -50 -118 -45 -443 -139 -640 -185 -148 -34 -160 -35
-231 -7 -105 41 -281 92 -349 102 -126 18 -169 -66 -115 -220 14 -38 37 -104
50 -145 14 -41 29 -88 35 -105 20 -62 58 -203 79 -295 12 -52 26 -112 32 -133
12 -43 34 -159 49 -257 6 -36 17 -101 26 -145 8 -44 18 -114 23 -155 6 -41 14
-113 20 -160 25 -200 42 -375 51 -515 21 -321 37 -419 94 -560 56 -136 172
-296 239 -328 28 -14 34 -14 59 1 50 29 96 205 104 402 8 181 5 174 72 198 31
11 73 23 92 27 19 4 55 13 80 20 91 26 471 104 685 140 55 10 144 26 197 36
53 11 113 19 132 19 19 0 46 4 60 10 14 5 76 16 138 24 159 21 207 44 222 108
12 54 -27 105 -136 178 -38 25 -68 52 -68 60 0 33 32 176 71 320 6 25 18 70
25 100 12 50 31 118 69 240 91 296 194 512 319 674 113 146 157 249 137 323
-19 70 -69 127 -156 180 -11 7 -58 35 -105 63 -47 28 -92 55 -100 60 -84 54
-269 163 -314 185 -72 35 -154 41 -261 17z m-127 -626 c54 -28 91 -91 99 -170
5 -52 -15 -215 -42 -336 -8 -36 -24 -108 -35 -160 -11 -52 -27 -124 -35 -160
-33 -152 -56 -261 -76 -355 -20 -95 -35 -165 -62 -284 -14 -62 -34 -76 -157
-111 -41 -12 -100 -30 -130 -40 -30 -10 -109 -35 -175 -55 -66 -20 -138 -43
-160 -50 -22 -8 -87 -28 -143 -46 -128 -39 -130 -37 -143 82 -4 46 -15 143
-24 214 -37 321 -47 417 -55 515 -5 58 -15 173 -24 255 -20 190 -33 451 -24
474 4 12 29 23 80 35 40 10 147 35 238 57 91 22 192 46 225 53 33 8 89 21 125
30 121 29 285 65 320 69 56 8 169 -2 198 -17z"/>
</g>
</svg>
