<svg width="235" height="186" viewBox="0 0 235 186" fill="none" xmlns="http://www.w3.org/2000/svg">
<path d="M96 186H109L109 102H96L96 186Z" fill="url(#paint0_linear_133_3)"/>
<path d="M27 186H41L41 102H27L27 186Z" fill="url(#paint1_linear_133_3)"/>
<path d="M13 0H0V157H13V0Z" fill="url(#paint2_linear_133_3)"/>
<path d="M28.571 112.665H108.998V101.053L81.7974 86.1362H0.196411V96.7144L28.571 112.665Z" fill="url(#paint3_linear_133_3)"/>
<path d="M83 0H70V157H83V0Z" fill="url(#paint4_linear_133_3)"/>
<path d="M0 64.0647L0 77.0691H83.3103V64.0647H0Z" fill="url(#paint5_linear_133_3)"/>
<path d="M0 11.1741L0 24.1785L83.3103 24.1785V11.1741L0 11.1741Z" fill="url(#paint6_linear_133_3)"/>
<path d="M0 37.7791L0 50.7834L83.3103 50.7834V37.7791L0 37.7791Z" fill="url(#paint7_linear_133_3)"/>
<path d="M5.59803 46.1206C6.64962 46.1206 7.50209 45.2681 7.50209 44.2166C7.50209 43.165 6.64962 42.3125 5.59803 42.3125C4.54645 42.3125 3.69397 43.165 3.69397 44.2166C3.69397 45.2681 4.54645 46.1206 5.59803 46.1206Z" fill="white"/>
<path d="M5.76588 72.1463C6.81746 72.1463 7.66994 71.2938 7.66994 70.2422C7.66994 69.1906 6.81746 68.3381 5.76588 68.3381C4.71429 68.3381 3.86182 69.1906 3.86182 70.2422C3.86182 71.2938 4.71429 72.1463 5.76588 72.1463Z" fill="white"/>
<path d="M5.65174 18.9197C6.70333 18.9197 7.5558 18.0672 7.5558 17.0156C7.5558 15.964 6.70333 15.1116 5.65174 15.1116C4.60016 15.1116 3.74768 15.964 3.74768 17.0156C3.74768 18.0672 4.60016 18.9197 5.65174 18.9197Z" fill="white"/>
<path d="M76.3136 72.1731C77.3652 72.1731 78.2177 71.3206 78.2177 70.2691C78.2177 69.2175 77.3652 68.365 76.3136 68.365C75.262 68.365 74.4095 69.2175 74.4095 70.2691C74.4095 71.3206 75.262 72.1731 76.3136 72.1731Z" fill="white"/>
<path d="M75.9509 46.1206C77.0025 46.1206 77.855 45.2681 77.855 44.2166C77.855 43.165 77.0025 42.3125 75.9509 42.3125C74.8994 42.3125 74.0469 43.165 74.0469 44.2166C74.0469 45.2681 74.8994 46.1206 75.9509 46.1206Z" fill="white"/>
<path d="M76.6763 18.9197C77.7279 18.9197 78.5803 18.0672 78.5803 17.0156C78.5803 15.964 77.7279 15.1116 76.6763 15.1116C75.6247 15.1116 74.7722 15.964 74.7722 17.0156C74.7722 18.0672 75.6247 18.9197 76.6763 18.9197Z" fill="white"/>
<path d="M139 186H126L126 102H139V186Z" fill="url(#paint8_linear_133_3)"/>
<path d="M208 186H194V102H208V186Z" fill="url(#paint9_linear_133_3)"/>
<path d="M222 0H235V157H222V0Z" fill="url(#paint10_linear_133_3)"/>
<path d="M206.429 112.665H126.002V101.053L153.203 86.1362H234.804V96.7144L206.429 112.665Z" fill="url(#paint11_linear_133_3)"/>
<path d="M152 0H165V157H152V0Z" fill="url(#paint12_linear_133_3)"/>
<path d="M235 64.0647V77.0691H151.69V64.0647H235Z" fill="url(#paint13_linear_133_3)"/>
<path d="M235 11.1741V24.1785L151.69 24.1785V11.1741L235 11.1741Z" fill="url(#paint14_linear_133_3)"/>
<path d="M235 37.7791V50.7834L151.69 50.7834V37.7791L235 37.7791Z" fill="url(#paint15_linear_133_3)"/>
<path d="M229.402 46.1206C228.35 46.1206 227.498 45.2681 227.498 44.2166C227.498 43.165 228.35 42.3125 229.402 42.3125C230.454 42.3125 231.306 43.165 231.306 44.2166C231.306 45.2681 230.454 46.1206 229.402 46.1206Z" fill="white"/>
<path d="M229.234 72.1463C228.183 72.1463 227.33 71.2938 227.33 70.2422C227.33 69.1906 228.183 68.3381 229.234 68.3381C230.286 68.3381 231.138 69.1906 231.138 70.2422C231.138 71.2938 230.286 72.1463 229.234 72.1463Z" fill="white"/>
<path d="M229.348 18.9197C228.297 18.9197 227.444 18.0672 227.444 17.0156C227.444 15.964 228.297 15.1116 229.348 15.1116C230.4 15.1116 231.252 15.964 231.252 17.0156C231.252 18.0672 230.4 18.9197 229.348 18.9197Z" fill="white"/>
<path d="M158.686 72.1731C157.635 72.1731 156.782 71.3206 156.782 70.2691C156.782 69.2175 157.635 68.365 158.686 68.365C159.738 68.365 160.59 69.2175 160.59 70.2691C160.59 71.3206 159.738 72.1731 158.686 72.1731Z" fill="white"/>
<path d="M159.049 46.1206C157.997 46.1206 157.145 45.2681 157.145 44.2166C157.145 43.165 157.997 42.3125 159.049 42.3125C160.101 42.3125 160.953 43.165 160.953 44.2166C160.953 45.2681 160.101 46.1206 159.049 46.1206Z" fill="white"/>
<path d="M158.324 18.9197C157.272 18.9197 156.42 18.0672 156.42 17.0156C156.42 15.964 157.272 15.1116 158.324 15.1116C159.375 15.1116 160.228 15.964 160.228 17.0156C160.228 18.0672 159.375 18.9197 158.324 18.9197Z" fill="white"/>
<defs>
<linearGradient id="paint0_linear_133_3" x1="109" y1="144.001" x2="95.9983" y2="144.001" gradientUnits="userSpaceOnUse">
<stop stop-color="#A78D3A"/>
<stop offset="0.23" stop-color="#A78D3A" stop-opacity="0.99"/>
<stop offset="0.38" stop-color="#A78D3A" stop-opacity="0.95"/>
<stop offset="0.49" stop-color="#A78D3A" stop-opacity="0.89"/>
<stop offset="0.6" stop-color="#A78D3A" stop-opacity="0.8"/>
<stop offset="0.69" stop-color="#A78D3A" stop-opacity="0.68"/>
<stop offset="0.78" stop-color="#A78D3A" stop-opacity="0.54"/>
<stop offset="0.86" stop-color="#A78D3A" stop-opacity="0.37"/>
<stop offset="0.94" stop-color="#A78D3A" stop-opacity="0.18"/>
<stop offset="1" stop-color="white" stop-opacity="0"/>
</linearGradient>
<linearGradient id="paint1_linear_133_3" x1="41" y1="144.001" x2="27" y2="144.001" gradientUnits="userSpaceOnUse">
<stop stop-color="#A78D3A"/>
<stop offset="0.23" stop-color="#A78D3A" stop-opacity="0.99"/>
<stop offset="0.38" stop-color="#A78D3A" stop-opacity="0.95"/>
<stop offset="0.49" stop-color="#A78D3A" stop-opacity="0.89"/>
<stop offset="0.6" stop-color="#A78D3A" stop-opacity="0.8"/>
<stop offset="0.69" stop-color="#A78D3A" stop-opacity="0.68"/>
<stop offset="0.78" stop-color="#A78D3A" stop-opacity="0.54"/>
<stop offset="0.86" stop-color="#A78D3A" stop-opacity="0.37"/>
<stop offset="0.94" stop-color="#A78D3A" stop-opacity="0.18"/>
<stop offset="1" stop-color="white" stop-opacity="0"/>
</linearGradient>
<linearGradient id="paint2_linear_133_3" x1="0" y1="78.4992" x2="13" y2="78.4992" gradientUnits="userSpaceOnUse">
<stop stop-color="#A78D3A"/>
<stop offset="0.23" stop-color="#A78D3A" stop-opacity="0.99"/>
<stop offset="0.38" stop-color="#A78D3A" stop-opacity="0.95"/>
<stop offset="0.49" stop-color="#A78D3A" stop-opacity="0.89"/>
<stop offset="0.6" stop-color="#A78D3A" stop-opacity="0.8"/>
<stop offset="0.69" stop-color="#A78D3A" stop-opacity="0.68"/>
<stop offset="0.78" stop-color="#A78D3A" stop-opacity="0.54"/>
<stop offset="0.86" stop-color="#A78D3A" stop-opacity="0.37"/>
<stop offset="0.94" stop-color="#A78D3A" stop-opacity="0.18"/>
<stop offset="1" stop-color="white" stop-opacity="0"/>
</linearGradient>
<linearGradient id="paint3_linear_133_3" x1="54.5982" y1="111.826" x2="54.5982" y2="86.1362" gradientUnits="userSpaceOnUse">
<stop stop-color="#A78D3A"/>
<stop offset="0.23" stop-color="#A78D3A" stop-opacity="0.99"/>
<stop offset="0.38" stop-color="#A78D3A" stop-opacity="0.95"/>
<stop offset="0.49" stop-color="#A78D3A" stop-opacity="0.89"/>
<stop offset="0.6" stop-color="#A78D3A" stop-opacity="0.8"/>
<stop offset="0.69" stop-color="#A78D3A" stop-opacity="0.68"/>
<stop offset="0.78" stop-color="#A78D3A" stop-opacity="0.54"/>
<stop offset="0.86" stop-color="#A78D3A" stop-opacity="0.37"/>
<stop offset="0.94" stop-color="#A78D3A" stop-opacity="0.18"/>
<stop offset="1" stop-color="white" stop-opacity="0"/>
</linearGradient>
<linearGradient id="paint4_linear_133_3" x1="70" y1="78.5" x2="83" y2="78.5" gradientUnits="userSpaceOnUse">
<stop stop-color="#A78D3A"/>
<stop offset="0.23" stop-color="#A78D3A" stop-opacity="0.99"/>
<stop offset="0.38" stop-color="#A78D3A" stop-opacity="0.95"/>
<stop offset="0.49" stop-color="#A78D3A" stop-opacity="0.89"/>
<stop offset="0.6" stop-color="#A78D3A" stop-opacity="0.8"/>
<stop offset="0.69" stop-color="#A78D3A" stop-opacity="0.68"/>
<stop offset="0.78" stop-color="#A78D3A" stop-opacity="0.54"/>
<stop offset="0.86" stop-color="#A78D3A" stop-opacity="0.37"/>
<stop offset="0.94" stop-color="#A78D3A" stop-opacity="0.18"/>
<stop offset="1" stop-color="white" stop-opacity="0"/>
</linearGradient>
<linearGradient id="paint5_linear_133_3" x1="41.6543" y1="64.0647" x2="41.6543" y2="77.0708" gradientUnits="userSpaceOnUse">
<stop stop-color="#A78D3A"/>
<stop offset="0.23" stop-color="#A78D3A" stop-opacity="0.99"/>
<stop offset="0.38" stop-color="#A78D3A" stop-opacity="0.95"/>
<stop offset="0.49" stop-color="#A78D3A" stop-opacity="0.89"/>
<stop offset="0.6" stop-color="#A78D3A" stop-opacity="0.8"/>
<stop offset="0.69" stop-color="#A78D3A" stop-opacity="0.68"/>
<stop offset="0.78" stop-color="#A78D3A" stop-opacity="0.54"/>
<stop offset="0.86" stop-color="#A78D3A" stop-opacity="0.37"/>
<stop offset="0.94" stop-color="#A78D3A" stop-opacity="0.18"/>
<stop offset="1" stop-color="white" stop-opacity="0"/>
</linearGradient>
<linearGradient id="paint6_linear_133_3" x1="41.6543" y1="11.1741" x2="41.6543" y2="24.1801" gradientUnits="userSpaceOnUse">
<stop stop-color="#A78D3A"/>
<stop offset="0.23" stop-color="#A78D3A" stop-opacity="0.99"/>
<stop offset="0.38" stop-color="#A78D3A" stop-opacity="0.95"/>
<stop offset="0.49" stop-color="#A78D3A" stop-opacity="0.89"/>
<stop offset="0.6" stop-color="#A78D3A" stop-opacity="0.8"/>
<stop offset="0.69" stop-color="#A78D3A" stop-opacity="0.68"/>
<stop offset="0.78" stop-color="#A78D3A" stop-opacity="0.54"/>
<stop offset="0.86" stop-color="#A78D3A" stop-opacity="0.37"/>
<stop offset="0.94" stop-color="#A78D3A" stop-opacity="0.18"/>
<stop offset="1" stop-color="white" stop-opacity="0"/>
</linearGradient>
<linearGradient id="paint7_linear_133_3" x1="41.656" y1="37.7807" x2="41.656" y2="50.7851" gradientUnits="userSpaceOnUse">
<stop stop-color="#A78D3A"/>
<stop offset="0.23" stop-color="#A78D3A" stop-opacity="0.99"/>
<stop offset="0.38" stop-color="#A78D3A" stop-opacity="0.95"/>
<stop offset="0.49" stop-color="#A78D3A" stop-opacity="0.89"/>
<stop offset="0.6" stop-color="#A78D3A" stop-opacity="0.8"/>
<stop offset="0.69" stop-color="#A78D3A" stop-opacity="0.68"/>
<stop offset="0.78" stop-color="#A78D3A" stop-opacity="0.54"/>
<stop offset="0.86" stop-color="#A78D3A" stop-opacity="0.37"/>
<stop offset="0.94" stop-color="#A78D3A" stop-opacity="0.18"/>
<stop offset="1" stop-color="white" stop-opacity="0"/>
</linearGradient>
<linearGradient id="paint8_linear_133_3" x1="126" y1="144.001" x2="139.002" y2="144.001" gradientUnits="userSpaceOnUse">
<stop stop-color="#A2CDC3"/>
<stop offset="0.23" stop-color="#A2CDC3" stop-opacity="0.99"/>
<stop offset="0.38" stop-color="#A2CDC3" stop-opacity="0.95"/>
<stop offset="0.49" stop-color="#A2CDC3" stop-opacity="0.89"/>
<stop offset="0.6" stop-color="#A2CDC3" stop-opacity="0.8"/>
<stop offset="0.69" stop-color="#A2CDC3" stop-opacity="0.68"/>
<stop offset="0.78" stop-color="#A2CDC3" stop-opacity="0.54"/>
<stop offset="0.86" stop-color="#A2CDC3" stop-opacity="0.37"/>
<stop offset="0.94" stop-color="#A2CDC3" stop-opacity="0.18"/>
<stop offset="1" stop-color="white" stop-opacity="0"/>
</linearGradient>
<linearGradient id="paint9_linear_133_3" x1="194" y1="144.001" x2="208" y2="144.001" gradientUnits="userSpaceOnUse">
<stop stop-color="#A2CDC3"/>
<stop offset="0.23" stop-color="#A2CDC3" stop-opacity="0.99"/>
<stop offset="0.38" stop-color="#A2CDC3" stop-opacity="0.95"/>
<stop offset="0.49" stop-color="#A2CDC3" stop-opacity="0.89"/>
<stop offset="0.6" stop-color="#A2CDC3" stop-opacity="0.8"/>
<stop offset="0.69" stop-color="#A2CDC3" stop-opacity="0.68"/>
<stop offset="0.78" stop-color="#A2CDC3" stop-opacity="0.54"/>
<stop offset="0.86" stop-color="#A2CDC3" stop-opacity="0.37"/>
<stop offset="0.94" stop-color="#A2CDC3" stop-opacity="0.18"/>
<stop offset="1" stop-color="white" stop-opacity="0"/>
</linearGradient>
<linearGradient id="paint10_linear_133_3" x1="235" y1="78.4992" x2="222" y2="78.4992" gradientUnits="userSpaceOnUse">
<stop stop-color="#A2CDC3"/>
<stop offset="0.23" stop-color="#A2CDC3" stop-opacity="0.99"/>
<stop offset="0.38" stop-color="#A2CDC3" stop-opacity="0.95"/>
<stop offset="0.49" stop-color="#A2CDC3" stop-opacity="0.89"/>
<stop offset="0.6" stop-color="#A2CDC3" stop-opacity="0.8"/>
<stop offset="0.69" stop-color="#A2CDC3" stop-opacity="0.68"/>
<stop offset="0.78" stop-color="#A2CDC3" stop-opacity="0.54"/>
<stop offset="0.86" stop-color="#A2CDC3" stop-opacity="0.37"/>
<stop offset="0.94" stop-color="#A2CDC3" stop-opacity="0.18"/>
<stop offset="1" stop-color="white" stop-opacity="0"/>
</linearGradient>
<linearGradient id="paint11_linear_133_3" x1="180.402" y1="111.826" x2="180.402" y2="86.1362" gradientUnits="userSpaceOnUse">
<stop stop-color="#A2CDC3"/>
<stop offset="0.23" stop-color="#A2CDC3" stop-opacity="0.99"/>
<stop offset="0.38" stop-color="#A2CDC3" stop-opacity="0.95"/>
<stop offset="0.49" stop-color="#A2CDC3" stop-opacity="0.89"/>
<stop offset="0.6" stop-color="#A2CDC3" stop-opacity="0.8"/>
<stop offset="0.69" stop-color="#A2CDC3" stop-opacity="0.68"/>
<stop offset="0.78" stop-color="#A2CDC3" stop-opacity="0.54"/>
<stop offset="0.86" stop-color="#A2CDC3" stop-opacity="0.37"/>
<stop offset="0.94" stop-color="#A2CDC3" stop-opacity="0.18"/>
<stop offset="1" stop-color="white" stop-opacity="0"/>
</linearGradient>
<linearGradient id="paint12_linear_133_3" x1="165" y1="78.5" x2="152" y2="78.5" gradientUnits="userSpaceOnUse">
<stop stop-color="#A2CDC3"/>
<stop offset="0.23" stop-color="#A2CDC3" stop-opacity="0.99"/>
<stop offset="0.38" stop-color="#A2CDC3" stop-opacity="0.95"/>
<stop offset="0.49" stop-color="#A2CDC3" stop-opacity="0.89"/>
<stop offset="0.6" stop-color="#A2CDC3" stop-opacity="0.8"/>
<stop offset="0.69" stop-color="#A2CDC3" stop-opacity="0.68"/>
<stop offset="0.78" stop-color="#A2CDC3" stop-opacity="0.54"/>
<stop offset="0.86" stop-color="#A2CDC3" stop-opacity="0.37"/>
<stop offset="0.94" stop-color="#A2CDC3" stop-opacity="0.18"/>
<stop offset="1" stop-color="white" stop-opacity="0"/>
</linearGradient>
<linearGradient id="paint13_linear_133_3" x1="193.346" y1="64.0647" x2="193.346" y2="77.0708" gradientUnits="userSpaceOnUse">
<stop stop-color="#A2CDC3"/>
<stop offset="0.23" stop-color="#A2CDC3" stop-opacity="0.99"/>
<stop offset="0.38" stop-color="#A2CDC3" stop-opacity="0.95"/>
<stop offset="0.49" stop-color="#A2CDC3" stop-opacity="0.89"/>
<stop offset="0.6" stop-color="#A2CDC3" stop-opacity="0.8"/>
<stop offset="0.69" stop-color="#A2CDC3" stop-opacity="0.68"/>
<stop offset="0.78" stop-color="#A2CDC3" stop-opacity="0.54"/>
<stop offset="0.86" stop-color="#A2CDC3" stop-opacity="0.37"/>
<stop offset="0.94" stop-color="#A2CDC3" stop-opacity="0.18"/>
<stop offset="1" stop-color="white" stop-opacity="0"/>
</linearGradient>
<linearGradient id="paint14_linear_133_3" x1="193.346" y1="11.1741" x2="193.346" y2="24.1801" gradientUnits="userSpaceOnUse">
<stop stop-color="#A2CDC3"/>
<stop offset="0.23" stop-color="#A2CDC3" stop-opacity="0.99"/>
<stop offset="0.38" stop-color="#A2CDC3" stop-opacity="0.95"/>
<stop offset="0.49" stop-color="#A2CDC3" stop-opacity="0.89"/>
<stop offset="0.6" stop-color="#A2CDC3" stop-opacity="0.8"/>
<stop offset="0.69" stop-color="#A2CDC3" stop-opacity="0.68"/>
<stop offset="0.78" stop-color="#A2CDC3" stop-opacity="0.54"/>
<stop offset="0.86" stop-color="#A2CDC3" stop-opacity="0.37"/>
<stop offset="0.94" stop-color="#A2CDC3" stop-opacity="0.18"/>
<stop offset="1" stop-color="white" stop-opacity="0"/>
</linearGradient>
<linearGradient id="paint15_linear_133_3" x1="193.344" y1="37.7807" x2="193.344" y2="50.7851" gradientUnits="userSpaceOnUse">
<stop stop-color="#A2CDC3"/>
<stop offset="0.23" stop-color="#A2CDC3" stop-opacity="0.99"/>
<stop offset="0.38" stop-color="#A2CDC3" stop-opacity="0.95"/>
<stop offset="0.49" stop-color="#A2CDC3" stop-opacity="0.89"/>
<stop offset="0.6" stop-color="#A2CDC3" stop-opacity="0.8"/>
<stop offset="0.69" stop-color="#A2CDC3" stop-opacity="0.68"/>
<stop offset="0.78" stop-color="#A2CDC3" stop-opacity="0.54"/>
<stop offset="0.86" stop-color="#A2CDC3" stop-opacity="0.37"/>
<stop offset="0.94" stop-color="#A2CDC3" stop-opacity="0.18"/>
<stop offset="1" stop-color="white" stop-opacity="0"/>
</linearGradient>
</defs>
</svg>
