<svg width="363" height="186" viewBox="0 0 363 186" fill="none" xmlns="http://www.w3.org/2000/svg">
<path d="M140 186H127L127 102H140V186Z" fill="url(#paint0_linear_131_2)"/>
<path d="M209 186H195V102H209V186Z" fill="url(#paint1_linear_131_2)"/>
<path d="M223 0H236V157H223V0Z" fill="url(#paint2_linear_131_2)"/>
<path d="M207.429 112.665H127.002V101.053L154.203 86.1362H235.804V96.7144L207.429 112.665Z" fill="url(#paint3_linear_131_2)"/>
<path d="M153 0H166V157H153V0Z" fill="url(#paint4_linear_131_2)"/>
<path d="M236 64.0647V77.0691H152.69V64.0647H236Z" fill="url(#paint5_linear_131_2)"/>
<path d="M236 11.1741V24.1785L152.69 24.1785V11.1741L236 11.1741Z" fill="url(#paint6_linear_131_2)"/>
<path d="M236 37.7791V50.7834L152.69 50.7834V37.7791L236 37.7791Z" fill="url(#paint7_linear_131_2)"/>
<path d="M230.402 46.1206C229.35 46.1206 228.498 45.2681 228.498 44.2166C228.498 43.165 229.35 42.3125 230.402 42.3125C231.454 42.3125 232.306 43.165 232.306 44.2166C232.306 45.2681 231.454 46.1206 230.402 46.1206Z" fill="white"/>
<path d="M230.234 72.1463C229.183 72.1463 228.33 71.2938 228.33 70.2422C228.33 69.1906 229.183 68.3381 230.234 68.3381C231.286 68.3381 232.138 69.1906 232.138 70.2422C232.138 71.2938 231.286 72.1463 230.234 72.1463Z" fill="white"/>
<path d="M230.348 18.9197C229.297 18.9197 228.444 18.0672 228.444 17.0156C228.444 15.964 229.297 15.1116 230.348 15.1116C231.4 15.1116 232.252 15.964 232.252 17.0156C232.252 18.0672 231.4 18.9197 230.348 18.9197Z" fill="white"/>
<path d="M159.686 72.1731C158.635 72.1731 157.782 71.3206 157.782 70.2691C157.782 69.2175 158.635 68.365 159.686 68.365C160.738 68.365 161.59 69.2175 161.59 70.2691C161.59 71.3206 160.738 72.1731 159.686 72.1731Z" fill="white"/>
<path d="M160.049 46.1206C158.997 46.1206 158.145 45.2681 158.145 44.2166C158.145 43.165 158.997 42.3125 160.049 42.3125C161.101 42.3125 161.953 43.165 161.953 44.2166C161.953 45.2681 161.101 46.1206 160.049 46.1206Z" fill="white"/>
<path d="M159.324 18.9197C158.272 18.9197 157.42 18.0672 157.42 17.0156C157.42 15.964 158.272 15.1116 159.324 15.1116C160.375 15.1116 161.228 15.964 161.228 17.0156C161.228 18.0672 160.375 18.9197 159.324 18.9197Z" fill="white"/>
<path d="M96 186H109L109 102H96L96 186Z" fill="url(#paint8_linear_131_2)"/>
<path d="M27 186H41L41 102H27L27 186Z" fill="url(#paint9_linear_131_2)"/>
<path d="M13 0H0V157H13V0Z" fill="url(#paint10_linear_131_2)"/>
<path d="M28.571 112.665H108.998V101.053L81.7974 86.1362H0.196411V96.7144L28.571 112.665Z" fill="url(#paint11_linear_131_2)"/>
<path d="M83 0H70V157H83V0Z" fill="url(#paint12_linear_131_2)"/>
<path d="M0 64.0647L0 77.0691H83.3103V64.0647H0Z" fill="url(#paint13_linear_131_2)"/>
<path d="M0 11.1741L0 24.1785L83.3103 24.1785V11.1741L0 11.1741Z" fill="url(#paint14_linear_131_2)"/>
<path d="M0 37.7791L0 50.7834L83.3103 50.7834V37.7791L0 37.7791Z" fill="url(#paint15_linear_131_2)"/>
<path d="M5.59803 46.1206C6.64962 46.1206 7.50209 45.2681 7.50209 44.2166C7.50209 43.165 6.64962 42.3125 5.59803 42.3125C4.54645 42.3125 3.69397 43.165 3.69397 44.2166C3.69397 45.2681 4.54645 46.1206 5.59803 46.1206Z" fill="white"/>
<path d="M5.76588 72.1463C6.81746 72.1463 7.66994 71.2938 7.66994 70.2422C7.66994 69.1906 6.81746 68.3381 5.76588 68.3381C4.71429 68.3381 3.86182 69.1906 3.86182 70.2422C3.86182 71.2938 4.71429 72.1463 5.76588 72.1463Z" fill="white"/>
<path d="M5.65174 18.9197C6.70333 18.9197 7.5558 18.0672 7.5558 17.0156C7.5558 15.964 6.70333 15.1116 5.65174 15.1116C4.60016 15.1116 3.74768 15.964 3.74768 17.0156C3.74768 18.0672 4.60016 18.9197 5.65174 18.9197Z" fill="white"/>
<path d="M76.3136 72.1731C77.3652 72.1731 78.2177 71.3206 78.2177 70.2691C78.2177 69.2175 77.3652 68.365 76.3136 68.365C75.262 68.365 74.4095 69.2175 74.4095 70.2691C74.4095 71.3206 75.262 72.1731 76.3136 72.1731Z" fill="white"/>
<path d="M75.9509 46.1206C77.0025 46.1206 77.855 45.2681 77.855 44.2166C77.855 43.165 77.0025 42.3125 75.9509 42.3125C74.8994 42.3125 74.0469 43.165 74.0469 44.2166C74.0469 45.2681 74.8994 46.1206 75.9509 46.1206Z" fill="white"/>
<path d="M76.6763 18.9197C77.7279 18.9197 78.5803 18.0672 78.5803 17.0156C78.5803 15.964 77.7279 15.1116 76.6763 15.1116C75.6247 15.1116 74.7722 15.964 74.7722 17.0156C74.7722 18.0672 75.6247 18.9197 76.6763 18.9197Z" fill="white"/>
<path d="M267 186H254V102H267V186Z" fill="url(#paint16_linear_131_2)"/>
<path d="M336 186H322V102H336V186Z" fill="url(#paint17_linear_131_2)"/>
<path d="M350 0H363V157H350V0Z" fill="url(#paint18_linear_131_2)"/>
<path d="M334.429 112.665H254.002V101.053L281.203 86.1362H362.804V96.7144L334.429 112.665Z" fill="url(#paint19_linear_131_2)"/>
<path d="M280 0H293V157H280V0Z" fill="url(#paint20_linear_131_2)"/>
<path d="M363 64.0647V77.0691H279.69V64.0647H363Z" fill="url(#paint21_linear_131_2)"/>
<path d="M363 11.1741V24.1785L279.69 24.1785V11.1741L363 11.1741Z" fill="url(#paint22_linear_131_2)"/>
<path d="M363 37.7791V50.7834L279.69 50.7834V37.7791L363 37.7791Z" fill="url(#paint23_linear_131_2)"/>
<path d="M357.402 46.1206C356.35 46.1206 355.498 45.2681 355.498 44.2166C355.498 43.165 356.35 42.3125 357.402 42.3125C358.454 42.3125 359.306 43.165 359.306 44.2166C359.306 45.2681 358.454 46.1206 357.402 46.1206Z" fill="white"/>
<path d="M357.234 72.1463C356.183 72.1463 355.33 71.2938 355.33 70.2422C355.33 69.1906 356.183 68.3381 357.234 68.3381C358.286 68.3381 359.138 69.1906 359.138 70.2422C359.138 71.2938 358.286 72.1463 357.234 72.1463Z" fill="white"/>
<path d="M357.348 18.9197C356.297 18.9197 355.444 18.0672 355.444 17.0156C355.444 15.964 356.297 15.1116 357.348 15.1116C358.4 15.1116 359.252 15.964 359.252 17.0156C359.252 18.0672 358.4 18.9197 357.348 18.9197Z" fill="white"/>
<path d="M286.686 72.1731C285.635 72.1731 284.782 71.3206 284.782 70.2691C284.782 69.2175 285.635 68.365 286.686 68.365C287.738 68.365 288.59 69.2175 288.59 70.2691C288.59 71.3206 287.738 72.1731 286.686 72.1731Z" fill="white"/>
<path d="M287.049 46.1206C285.997 46.1206 285.145 45.2681 285.145 44.2166C285.145 43.165 285.997 42.3125 287.049 42.3125C288.101 42.3125 288.953 43.165 288.953 44.2166C288.953 45.2681 288.101 46.1206 287.049 46.1206Z" fill="white"/>
<path d="M286.324 18.9197C285.272 18.9197 284.42 18.0672 284.42 17.0156C284.42 15.964 285.272 15.1116 286.324 15.1116C287.375 15.1116 288.228 15.964 288.228 17.0156C288.228 18.0672 287.375 18.9197 286.324 18.9197Z" fill="white"/>
<defs>
<linearGradient id="paint0_linear_131_2" x1="127" y1="144.001" x2="140.002" y2="144.001" gradientUnits="userSpaceOnUse">
<stop stop-color="#E4AFC5"/>
<stop offset="0.23" stop-color="#E4B0C6" stop-opacity="0.99"/>
<stop offset="0.38" stop-color="#E5B3C8" stop-opacity="0.95"/>
<stop offset="0.49" stop-color="#E7B8CB" stop-opacity="0.89"/>
<stop offset="0.6" stop-color="#E9BFD1" stop-opacity="0.8"/>
<stop offset="0.69" stop-color="#EDC8D7" stop-opacity="0.68"/>
<stop offset="0.78" stop-color="#F0D4E0" stop-opacity="0.54"/>
<stop offset="0.86" stop-color="#F5E1E9" stop-opacity="0.37"/>
<stop offset="0.94" stop-color="#FAF0F4" stop-opacity="0.18"/>
<stop offset="1" stop-color="white" stop-opacity="0"/>
</linearGradient>
<linearGradient id="paint1_linear_131_2" x1="195" y1="144.001" x2="209" y2="144.001" gradientUnits="userSpaceOnUse">
<stop stop-color="#E4AFC5"/>
<stop offset="0.23" stop-color="#E4B0C6" stop-opacity="0.99"/>
<stop offset="0.38" stop-color="#E5B3C8" stop-opacity="0.95"/>
<stop offset="0.49" stop-color="#E7B8CB" stop-opacity="0.89"/>
<stop offset="0.6" stop-color="#E9BFD1" stop-opacity="0.8"/>
<stop offset="0.69" stop-color="#EDC8D7" stop-opacity="0.68"/>
<stop offset="0.78" stop-color="#F0D4E0" stop-opacity="0.54"/>
<stop offset="0.86" stop-color="#F5E1E9" stop-opacity="0.37"/>
<stop offset="0.94" stop-color="#FAF0F4" stop-opacity="0.18"/>
<stop offset="1" stop-color="white" stop-opacity="0"/>
</linearGradient>
<linearGradient id="paint2_linear_131_2" x1="236" y1="78.4992" x2="223" y2="78.4992" gradientUnits="userSpaceOnUse">
<stop stop-color="#E4AFC5"/>
<stop offset="0.23" stop-color="#E4B0C6" stop-opacity="0.99"/>
<stop offset="0.38" stop-color="#E5B3C8" stop-opacity="0.95"/>
<stop offset="0.49" stop-color="#E7B8CB" stop-opacity="0.89"/>
<stop offset="0.6" stop-color="#E9BFD1" stop-opacity="0.8"/>
<stop offset="0.69" stop-color="#EDC8D7" stop-opacity="0.68"/>
<stop offset="0.78" stop-color="#F0D4E0" stop-opacity="0.54"/>
<stop offset="0.86" stop-color="#F5E1E9" stop-opacity="0.37"/>
<stop offset="0.94" stop-color="#FAF0F4" stop-opacity="0.18"/>
<stop offset="1" stop-color="white" stop-opacity="0"/>
</linearGradient>
<linearGradient id="paint3_linear_131_2" x1="181.402" y1="111.826" x2="181.402" y2="86.1362" gradientUnits="userSpaceOnUse">
<stop stop-color="#E4AFC5"/>
<stop offset="0.23" stop-color="#E4B0C6" stop-opacity="0.99"/>
<stop offset="0.38" stop-color="#E5B3C8" stop-opacity="0.95"/>
<stop offset="0.49" stop-color="#E7B8CB" stop-opacity="0.89"/>
<stop offset="0.6" stop-color="#E9BFD1" stop-opacity="0.8"/>
<stop offset="0.69" stop-color="#EDC8D7" stop-opacity="0.68"/>
<stop offset="0.78" stop-color="#F0D4E0" stop-opacity="0.54"/>
<stop offset="0.86" stop-color="#F5E1E9" stop-opacity="0.37"/>
<stop offset="0.94" stop-color="#FAF0F4" stop-opacity="0.18"/>
<stop offset="1" stop-color="white" stop-opacity="0"/>
</linearGradient>
<linearGradient id="paint4_linear_131_2" x1="166" y1="78.5" x2="153" y2="78.5" gradientUnits="userSpaceOnUse">
<stop stop-color="#E4AFC5"/>
<stop offset="0.23" stop-color="#E4B0C6" stop-opacity="0.99"/>
<stop offset="0.38" stop-color="#E5B3C8" stop-opacity="0.95"/>
<stop offset="0.49" stop-color="#E7B8CB" stop-opacity="0.89"/>
<stop offset="0.6" stop-color="#E9BFD1" stop-opacity="0.8"/>
<stop offset="0.69" stop-color="#EDC8D7" stop-opacity="0.68"/>
<stop offset="0.78" stop-color="#F0D4E0" stop-opacity="0.54"/>
<stop offset="0.86" stop-color="#F5E1E9" stop-opacity="0.37"/>
<stop offset="0.94" stop-color="#FAF0F4" stop-opacity="0.18"/>
<stop offset="1" stop-color="white" stop-opacity="0"/>
</linearGradient>
<linearGradient id="paint5_linear_131_2" x1="194.346" y1="64.0647" x2="194.346" y2="77.0708" gradientUnits="userSpaceOnUse">
<stop stop-color="#E4AFC5"/>
<stop offset="0.23" stop-color="#E4B0C6" stop-opacity="0.99"/>
<stop offset="0.38" stop-color="#E5B3C8" stop-opacity="0.95"/>
<stop offset="0.49" stop-color="#E7B8CB" stop-opacity="0.89"/>
<stop offset="0.6" stop-color="#E9BFD1" stop-opacity="0.8"/>
<stop offset="0.69" stop-color="#EDC8D7" stop-opacity="0.68"/>
<stop offset="0.78" stop-color="#F0D4E0" stop-opacity="0.54"/>
<stop offset="0.86" stop-color="#F5E1E9" stop-opacity="0.37"/>
<stop offset="0.94" stop-color="#FAF0F4" stop-opacity="0.18"/>
<stop offset="1" stop-color="white" stop-opacity="0"/>
</linearGradient>
<linearGradient id="paint6_linear_131_2" x1="194.346" y1="11.1741" x2="194.346" y2="24.1801" gradientUnits="userSpaceOnUse">
<stop stop-color="#E4AFC5"/>
<stop offset="0.23" stop-color="#E4B0C6" stop-opacity="0.99"/>
<stop offset="0.38" stop-color="#E5B3C8" stop-opacity="0.95"/>
<stop offset="0.49" stop-color="#E7B8CB" stop-opacity="0.89"/>
<stop offset="0.6" stop-color="#E9BFD1" stop-opacity="0.8"/>
<stop offset="0.69" stop-color="#EDC8D7" stop-opacity="0.68"/>
<stop offset="0.78" stop-color="#F0D4E0" stop-opacity="0.54"/>
<stop offset="0.86" stop-color="#F5E1E9" stop-opacity="0.37"/>
<stop offset="0.94" stop-color="#FAF0F4" stop-opacity="0.18"/>
<stop offset="1" stop-color="white" stop-opacity="0"/>
</linearGradient>
<linearGradient id="paint7_linear_131_2" x1="194.344" y1="37.7807" x2="194.344" y2="50.7851" gradientUnits="userSpaceOnUse">
<stop stop-color="#E4AFC5"/>
<stop offset="0.23" stop-color="#E4B0C6" stop-opacity="0.99"/>
<stop offset="0.38" stop-color="#E5B3C8" stop-opacity="0.95"/>
<stop offset="0.49" stop-color="#E7B8CB" stop-opacity="0.89"/>
<stop offset="0.6" stop-color="#E9BFD1" stop-opacity="0.8"/>
<stop offset="0.69" stop-color="#EDC8D7" stop-opacity="0.68"/>
<stop offset="0.78" stop-color="#F0D4E0" stop-opacity="0.54"/>
<stop offset="0.86" stop-color="#F5E1E9" stop-opacity="0.37"/>
<stop offset="0.94" stop-color="#FAF0F4" stop-opacity="0.18"/>
<stop offset="1" stop-color="white" stop-opacity="0"/>
</linearGradient>
<linearGradient id="paint8_linear_131_2" x1="109" y1="144.001" x2="95.9983" y2="144.001" gradientUnits="userSpaceOnUse">
<stop stop-color="#367C4A"/>
<stop offset="0.23" stop-color="#367C4A" stop-opacity="0.99"/>
<stop offset="0.38" stop-color="#367C4A" stop-opacity="0.95"/>
<stop offset="0.49" stop-color="#367C4A" stop-opacity="0.89"/>
<stop offset="0.6" stop-color="#367C4A" stop-opacity="0.8"/>
<stop offset="0.69" stop-color="#367C4A" stop-opacity="0.68"/>
<stop offset="0.78" stop-color="#367C4A" stop-opacity="0.54"/>
<stop offset="0.86" stop-color="#367C4A" stop-opacity="0.37"/>
<stop offset="0.94" stop-color="#367C4A" stop-opacity="0.18"/>
<stop offset="1" stop-color="white" stop-opacity="0"/>
</linearGradient>
<linearGradient id="paint9_linear_131_2" x1="41" y1="144.001" x2="27" y2="144.001" gradientUnits="userSpaceOnUse">
<stop stop-color="#367C4A"/>
<stop offset="0.23" stop-color="#367C4A" stop-opacity="0.99"/>
<stop offset="0.38" stop-color="#367C4A" stop-opacity="0.95"/>
<stop offset="0.49" stop-color="#367C4A" stop-opacity="0.89"/>
<stop offset="0.6" stop-color="#367C4A" stop-opacity="0.8"/>
<stop offset="0.69" stop-color="#367C4A" stop-opacity="0.68"/>
<stop offset="0.78" stop-color="#367C4A" stop-opacity="0.54"/>
<stop offset="0.86" stop-color="#367C4A" stop-opacity="0.37"/>
<stop offset="0.94" stop-color="#367C4A" stop-opacity="0.18"/>
<stop offset="1" stop-color="white" stop-opacity="0"/>
</linearGradient>
<linearGradient id="paint10_linear_131_2" x1="0" y1="78.4992" x2="13" y2="78.4992" gradientUnits="userSpaceOnUse">
<stop stop-color="#367C4A"/>
<stop offset="0.23" stop-color="#367C4A" stop-opacity="0.99"/>
<stop offset="0.38" stop-color="#367C4A" stop-opacity="0.95"/>
<stop offset="0.49" stop-color="#367C4A" stop-opacity="0.89"/>
<stop offset="0.6" stop-color="#367C4A" stop-opacity="0.8"/>
<stop offset="0.69" stop-color="#367C4A" stop-opacity="0.68"/>
<stop offset="0.78" stop-color="#367C4A" stop-opacity="0.54"/>
<stop offset="0.86" stop-color="#367C4A" stop-opacity="0.37"/>
<stop offset="0.94" stop-color="#367C4A" stop-opacity="0.18"/>
<stop offset="1" stop-color="white" stop-opacity="0"/>
</linearGradient>
<linearGradient id="paint11_linear_131_2" x1="54.5982" y1="111.826" x2="54.5982" y2="86.1362" gradientUnits="userSpaceOnUse">
<stop stop-color="#367C4A"/>
<stop offset="0.23" stop-color="#367C4A" stop-opacity="0.99"/>
<stop offset="0.38" stop-color="#367C4A" stop-opacity="0.95"/>
<stop offset="0.49" stop-color="#367C4A" stop-opacity="0.89"/>
<stop offset="0.6" stop-color="#367C4A" stop-opacity="0.8"/>
<stop offset="0.69" stop-color="#367C4A" stop-opacity="0.68"/>
<stop offset="0.78" stop-color="#367C4A" stop-opacity="0.54"/>
<stop offset="0.86" stop-color="#367C4A" stop-opacity="0.37"/>
<stop offset="0.94" stop-color="#367C4A" stop-opacity="0.18"/>
<stop offset="1" stop-color="white" stop-opacity="0"/>
</linearGradient>
<linearGradient id="paint12_linear_131_2" x1="70" y1="78.5" x2="83" y2="78.5" gradientUnits="userSpaceOnUse">
<stop stop-color="#367C4A"/>
<stop offset="0.23" stop-color="#367C4A" stop-opacity="0.99"/>
<stop offset="0.38" stop-color="#367C4A" stop-opacity="0.95"/>
<stop offset="0.49" stop-color="#367C4A" stop-opacity="0.89"/>
<stop offset="0.6" stop-color="#367C4A" stop-opacity="0.8"/>
<stop offset="0.69" stop-color="#367C4A" stop-opacity="0.68"/>
<stop offset="0.78" stop-color="#367C4A" stop-opacity="0.54"/>
<stop offset="0.86" stop-color="#367C4A" stop-opacity="0.37"/>
<stop offset="0.94" stop-color="#367C4A" stop-opacity="0.18"/>
<stop offset="1" stop-color="white" stop-opacity="0"/>
</linearGradient>
<linearGradient id="paint13_linear_131_2" x1="41.6543" y1="64.0647" x2="41.6543" y2="77.0708" gradientUnits="userSpaceOnUse">
<stop stop-color="#367C4A"/>
<stop offset="0.23" stop-color="#367C4A" stop-opacity="0.99"/>
<stop offset="0.38" stop-color="#367C4A" stop-opacity="0.95"/>
<stop offset="0.49" stop-color="#367C4A" stop-opacity="0.89"/>
<stop offset="0.6" stop-color="#367C4A" stop-opacity="0.8"/>
<stop offset="0.69" stop-color="#367C4A" stop-opacity="0.68"/>
<stop offset="0.78" stop-color="#367C4A" stop-opacity="0.54"/>
<stop offset="0.86" stop-color="#367C4A" stop-opacity="0.37"/>
<stop offset="0.94" stop-color="#367C4A" stop-opacity="0.18"/>
<stop offset="1" stop-color="white" stop-opacity="0"/>
</linearGradient>
<linearGradient id="paint14_linear_131_2" x1="41.6543" y1="11.1741" x2="41.6543" y2="24.1801" gradientUnits="userSpaceOnUse">
<stop stop-color="#367C4A"/>
<stop offset="0.23" stop-color="#367C4A" stop-opacity="0.99"/>
<stop offset="0.38" stop-color="#367C4A" stop-opacity="0.95"/>
<stop offset="0.49" stop-color="#367C4A" stop-opacity="0.89"/>
<stop offset="0.6" stop-color="#367C4A" stop-opacity="0.8"/>
<stop offset="0.69" stop-color="#367C4A" stop-opacity="0.68"/>
<stop offset="0.78" stop-color="#367C4A" stop-opacity="0.54"/>
<stop offset="0.86" stop-color="#367C4A" stop-opacity="0.37"/>
<stop offset="0.94" stop-color="#367C4A" stop-opacity="0.18"/>
<stop offset="1" stop-color="white" stop-opacity="0"/>
</linearGradient>
<linearGradient id="paint15_linear_131_2" x1="41.656" y1="37.7807" x2="41.656" y2="50.7851" gradientUnits="userSpaceOnUse">
<stop stop-color="#367C4A"/>
<stop offset="0.23" stop-color="#367C4A" stop-opacity="0.99"/>
<stop offset="0.38" stop-color="#367C4A" stop-opacity="0.95"/>
<stop offset="0.49" stop-color="#367C4A" stop-opacity="0.89"/>
<stop offset="0.6" stop-color="#367C4A" stop-opacity="0.8"/>
<stop offset="0.69" stop-color="#367C4A" stop-opacity="0.68"/>
<stop offset="0.78" stop-color="#367C4A" stop-opacity="0.54"/>
<stop offset="0.86" stop-color="#367C4A" stop-opacity="0.37"/>
<stop offset="0.94" stop-color="#367C4A" stop-opacity="0.18"/>
<stop offset="1" stop-color="white" stop-opacity="0"/>
</linearGradient>
<linearGradient id="paint16_linear_131_2" x1="254" y1="144.001" x2="267.002" y2="144.001" gradientUnits="userSpaceOnUse">
<stop stop-color="#2C5ABA"/>
<stop offset="0.23" stop-color="#2C5ABA" stop-opacity="0.99"/>
<stop offset="0.38" stop-color="#2C5ABA" stop-opacity="0.95"/>
<stop offset="0.49" stop-color="#2C5ABA" stop-opacity="0.89"/>
<stop offset="0.6" stop-color="#2C5ABA" stop-opacity="0.8"/>
<stop offset="0.69" stop-color="#2C5ABA" stop-opacity="0.68"/>
<stop offset="0.78" stop-color="#2C5ABA" stop-opacity="0.54"/>
<stop offset="0.86" stop-color="#2C5ABA" stop-opacity="0.37"/>
<stop offset="0.94" stop-color="#2C5ABA" stop-opacity="0.18"/>
<stop offset="1" stop-color="white" stop-opacity="0"/>
</linearGradient>
<linearGradient id="paint17_linear_131_2" x1="322" y1="144.001" x2="336" y2="144.001" gradientUnits="userSpaceOnUse">
<stop stop-color="#2C5ABA"/>
<stop offset="0.23" stop-color="#2C5ABA" stop-opacity="0.99"/>
<stop offset="0.38" stop-color="#2C5ABA" stop-opacity="0.95"/>
<stop offset="0.49" stop-color="#2C5ABA" stop-opacity="0.89"/>
<stop offset="0.6" stop-color="#2C5ABA" stop-opacity="0.8"/>
<stop offset="0.69" stop-color="#2C5ABA" stop-opacity="0.68"/>
<stop offset="0.78" stop-color="#2C5ABA" stop-opacity="0.54"/>
<stop offset="0.86" stop-color="#2C5ABA" stop-opacity="0.37"/>
<stop offset="0.94" stop-color="#2C5ABA" stop-opacity="0.18"/>
<stop offset="1" stop-color="white" stop-opacity="0"/>
</linearGradient>
<linearGradient id="paint18_linear_131_2" x1="363" y1="78.4992" x2="350" y2="78.4992" gradientUnits="userSpaceOnUse">
<stop stop-color="#2C5ABA"/>
<stop offset="0.23" stop-color="#2C5ABA" stop-opacity="0.99"/>
<stop offset="0.38" stop-color="#2C5ABA" stop-opacity="0.95"/>
<stop offset="0.49" stop-color="#2C5ABA" stop-opacity="0.89"/>
<stop offset="0.6" stop-color="#2C5ABA" stop-opacity="0.8"/>
<stop offset="0.69" stop-color="#2C5ABA" stop-opacity="0.68"/>
<stop offset="0.78" stop-color="#2C5ABA" stop-opacity="0.54"/>
<stop offset="0.86" stop-color="#2C5ABA" stop-opacity="0.37"/>
<stop offset="0.94" stop-color="#2C5ABA" stop-opacity="0.18"/>
<stop offset="1" stop-color="white" stop-opacity="0"/>
</linearGradient>
<linearGradient id="paint19_linear_131_2" x1="308.402" y1="111.826" x2="308.402" y2="86.1362" gradientUnits="userSpaceOnUse">
<stop stop-color="#2C5ABA"/>
<stop offset="0.23" stop-color="#2C5ABA" stop-opacity="0.99"/>
<stop offset="0.38" stop-color="#2C5ABA" stop-opacity="0.95"/>
<stop offset="0.49" stop-color="#2C5ABA" stop-opacity="0.89"/>
<stop offset="0.6" stop-color="#2C5ABA" stop-opacity="0.8"/>
<stop offset="0.69" stop-color="#2C5ABA" stop-opacity="0.68"/>
<stop offset="0.78" stop-color="#2C5ABA" stop-opacity="0.54"/>
<stop offset="0.86" stop-color="#2C5ABA" stop-opacity="0.37"/>
<stop offset="0.94" stop-color="#2C5ABA" stop-opacity="0.18"/>
<stop offset="1" stop-color="white" stop-opacity="0"/>
</linearGradient>
<linearGradient id="paint20_linear_131_2" x1="293" y1="78.5" x2="280" y2="78.5" gradientUnits="userSpaceOnUse">
<stop stop-color="#2C5ABA"/>
<stop offset="0.23" stop-color="#2C5ABA" stop-opacity="0.99"/>
<stop offset="0.38" stop-color="#2C5ABA" stop-opacity="0.95"/>
<stop offset="0.49" stop-color="#2C5ABA" stop-opacity="0.89"/>
<stop offset="0.6" stop-color="#2C5ABA" stop-opacity="0.8"/>
<stop offset="0.69" stop-color="#2C5ABA" stop-opacity="0.68"/>
<stop offset="0.78" stop-color="#2C5ABA" stop-opacity="0.54"/>
<stop offset="0.86" stop-color="#2C5ABA" stop-opacity="0.37"/>
<stop offset="0.94" stop-color="#2C5ABA" stop-opacity="0.18"/>
<stop offset="1" stop-color="white" stop-opacity="0"/>
</linearGradient>
<linearGradient id="paint21_linear_131_2" x1="321.346" y1="64.0647" x2="321.346" y2="77.0708" gradientUnits="userSpaceOnUse">
<stop stop-color="#2C5ABA"/>
<stop offset="0.23" stop-color="#2C5ABA" stop-opacity="0.99"/>
<stop offset="0.38" stop-color="#2C5ABA" stop-opacity="0.95"/>
<stop offset="0.49" stop-color="#2C5ABA" stop-opacity="0.89"/>
<stop offset="0.6" stop-color="#2C5ABA" stop-opacity="0.8"/>
<stop offset="0.69" stop-color="#2C5ABA" stop-opacity="0.68"/>
<stop offset="0.78" stop-color="#2C5ABA" stop-opacity="0.54"/>
<stop offset="0.86" stop-color="#2C5ABA" stop-opacity="0.37"/>
<stop offset="0.94" stop-color="#2C5ABA" stop-opacity="0.18"/>
<stop offset="1" stop-color="white" stop-opacity="0"/>
</linearGradient>
<linearGradient id="paint22_linear_131_2" x1="321.346" y1="11.1741" x2="321.346" y2="24.1801" gradientUnits="userSpaceOnUse">
<stop stop-color="#2C5ABA"/>
<stop offset="0.23" stop-color="#2C5ABA" stop-opacity="0.99"/>
<stop offset="0.38" stop-color="#2C5ABA" stop-opacity="0.95"/>
<stop offset="0.49" stop-color="#2C5ABA" stop-opacity="0.89"/>
<stop offset="0.6" stop-color="#2C5ABA" stop-opacity="0.8"/>
<stop offset="0.69" stop-color="#2C5ABA" stop-opacity="0.68"/>
<stop offset="0.78" stop-color="#2C5ABA" stop-opacity="0.54"/>
<stop offset="0.86" stop-color="#2C5ABA" stop-opacity="0.37"/>
<stop offset="0.94" stop-color="#2C5ABA" stop-opacity="0.18"/>
<stop offset="1" stop-color="white" stop-opacity="0"/>
</linearGradient>
<linearGradient id="paint23_linear_131_2" x1="321.344" y1="37.7807" x2="321.344" y2="50.7851" gradientUnits="userSpaceOnUse">
<stop stop-color="#2C5ABA"/>
<stop offset="0.23" stop-color="#2C5ABA" stop-opacity="0.99"/>
<stop offset="0.38" stop-color="#2C5ABA" stop-opacity="0.95"/>
<stop offset="0.49" stop-color="#2C5ABA" stop-opacity="0.89"/>
<stop offset="0.6" stop-color="#2C5ABA" stop-opacity="0.8"/>
<stop offset="0.69" stop-color="#2C5ABA" stop-opacity="0.68"/>
<stop offset="0.78" stop-color="#2C5ABA" stop-opacity="0.54"/>
<stop offset="0.86" stop-color="#2C5ABA" stop-opacity="0.37"/>
<stop offset="0.94" stop-color="#2C5ABA" stop-opacity="0.18"/>
<stop offset="1" stop-color="white" stop-opacity="0"/>
</linearGradient>
</defs>
</svg>
