<svg width="94" height="160" viewBox="0 0 94 160" fill="none" xmlns="http://www.w3.org/2000/svg">
<path d="M11.043 160H0L0 88.6452H11.043L11.043 160Z" fill="url(#paint0_linear_97_2864)"/>
<path d="M69.6559 160H57.7634L57.7634 88.6452H69.6559L69.6559 160Z" fill="url(#paint1_linear_97_2864)"/>
<path d="M82 0H94V131H82V0Z" fill="url(#paint2_linear_97_2864)"/>
<path d="M68.3212 97.705H0.00120501V87.8407L23.1073 75.1694H92.4243V84.1552L68.3212 97.705Z" fill="url(#paint3_linear_97_2864)"/>
<path d="M22 0H34V131H22V0Z" fill="url(#paint4_linear_97_2864)"/>
<path d="M92.5913 56.4206V67.4673H21.8224V56.4206H92.5913Z" fill="url(#paint5_linear_97_2864)"/>
<path d="M92.5913 11.4921V22.5388L21.8224 22.5388V11.4921L92.5913 11.4921Z" fill="url(#paint6_linear_97_2864)"/>
<path d="M92.5913 34.0919V45.1387L21.8224 45.1387V34.0919H92.5913Z" fill="url(#paint7_linear_97_2864)"/>
<path d="M87.8362 41.1777C86.9429 41.1777 86.2188 40.4536 86.2188 39.5603C86.2188 38.667 86.9429 37.9429 87.8362 37.9429C88.7295 37.9429 89.4536 38.667 89.4536 39.5603C89.4536 40.4536 88.7295 41.1777 87.8362 41.1777Z" fill="white"/>
<path d="M87.6934 63.2856C86.8001 63.2856 86.0759 62.5615 86.0759 61.6682C86.0759 60.7749 86.8001 60.0508 87.6934 60.0508C88.5866 60.0508 89.3108 60.7749 89.3108 61.6682C89.3108 62.5615 88.5866 63.2856 87.6934 63.2856Z" fill="white"/>
<path d="M87.7903 18.0715C86.897 18.0715 86.1729 17.3474 86.1729 16.4541C86.1729 15.5608 86.897 14.8367 87.7903 14.8367C88.6836 14.8367 89.4077 15.5608 89.4077 16.4541C89.4077 17.3474 88.6836 18.0715 87.7903 18.0715Z" fill="white"/>
<path d="M27.7656 63.3084C26.8723 63.3084 26.1482 62.5842 26.1482 61.6909C26.1482 60.7976 26.8723 60.0735 27.7656 60.0735C28.6589 60.0735 29.3831 60.7976 29.3831 61.6909C29.3831 62.5842 28.6589 63.3084 27.7656 63.3084Z" fill="white"/>
<path d="M28.0737 41.1777C27.1804 41.1777 26.4563 40.4536 26.4563 39.5603C26.4563 38.667 27.1804 37.9429 28.0737 37.9429C28.967 37.9429 29.6912 38.667 29.6912 39.5603C29.6912 40.4536 28.967 41.1777 28.0737 41.1777Z" fill="white"/>
<path d="M27.4578 18.0715C26.5645 18.0715 25.8403 17.3474 25.8403 16.4541C25.8403 15.5608 26.5645 14.8367 27.4578 14.8367C28.3511 14.8367 29.0752 15.5608 29.0752 16.4541C29.0752 17.3474 28.3511 18.0715 27.4578 18.0715Z" fill="white"/>
<defs>
<linearGradient id="paint0_linear_97_2864" x1="0" y1="124.323" x2="11.0444" y2="124.323" gradientUnits="userSpaceOnUse">
<stop stop-color="#367C4A"/>
<stop offset="0.23" stop-color="#367C4A" stop-opacity="0.99"/>
<stop offset="0.38" stop-color="#367C4A" stop-opacity="0.95"/>
<stop offset="0.49" stop-color="#367C4A" stop-opacity="0.89"/>
<stop offset="0.6" stop-color="#367C4A" stop-opacity="0.8"/>
<stop offset="0.69" stop-color="#367C4A" stop-opacity="0.68"/>
<stop offset="0.78" stop-color="#367C4A" stop-opacity="0.54"/>
<stop offset="0.86" stop-color="#367C4A" stop-opacity="0.37"/>
<stop offset="0.94" stop-color="#367C4A" stop-opacity="0.18"/>
<stop offset="1" stop-color="white" stop-opacity="0"/>
</linearGradient>
<linearGradient id="paint1_linear_97_2864" x1="57.7634" y1="124.323" x2="69.6559" y2="124.323" gradientUnits="userSpaceOnUse">
<stop stop-color="#367C4A"/>
<stop offset="0.23" stop-color="#367C4A" stop-opacity="0.99"/>
<stop offset="0.38" stop-color="#367C4A" stop-opacity="0.95"/>
<stop offset="0.49" stop-color="#367C4A" stop-opacity="0.89"/>
<stop offset="0.6" stop-color="#367C4A" stop-opacity="0.8"/>
<stop offset="0.69" stop-color="#367C4A" stop-opacity="0.68"/>
<stop offset="0.78" stop-color="#367C4A" stop-opacity="0.54"/>
<stop offset="0.86" stop-color="#367C4A" stop-opacity="0.37"/>
<stop offset="0.94" stop-color="#367C4A" stop-opacity="0.18"/>
<stop offset="1" stop-color="white" stop-opacity="0"/>
</linearGradient>
<linearGradient id="paint2_linear_97_2864" x1="94" y1="65.4993" x2="82" y2="65.4993" gradientUnits="userSpaceOnUse">
<stop stop-color="#367C4A"/>
<stop offset="0.23" stop-color="#367C4A" stop-opacity="0.99"/>
<stop offset="0.38" stop-color="#367C4A" stop-opacity="0.95"/>
<stop offset="0.49" stop-color="#367C4A" stop-opacity="0.89"/>
<stop offset="0.6" stop-color="#367C4A" stop-opacity="0.8"/>
<stop offset="0.69" stop-color="#367C4A" stop-opacity="0.68"/>
<stop offset="0.78" stop-color="#367C4A" stop-opacity="0.54"/>
<stop offset="0.86" stop-color="#367C4A" stop-opacity="0.37"/>
<stop offset="0.94" stop-color="#367C4A" stop-opacity="0.18"/>
<stop offset="1" stop-color="white" stop-opacity="0"/>
</linearGradient>
<linearGradient id="paint3_linear_97_2864" x1="46.212" y1="96.9919" x2="46.212" y2="75.1694" gradientUnits="userSpaceOnUse">
<stop stop-color="#367C4A"/>
<stop offset="0.23" stop-color="#367C4A" stop-opacity="0.99"/>
<stop offset="0.38" stop-color="#367C4A" stop-opacity="0.95"/>
<stop offset="0.49" stop-color="#367C4A" stop-opacity="0.89"/>
<stop offset="0.6" stop-color="#367C4A" stop-opacity="0.8"/>
<stop offset="0.69" stop-color="#367C4A" stop-opacity="0.68"/>
<stop offset="0.78" stop-color="#367C4A" stop-opacity="0.54"/>
<stop offset="0.86" stop-color="#367C4A" stop-opacity="0.37"/>
<stop offset="0.94" stop-color="#367C4A" stop-opacity="0.18"/>
<stop offset="1" stop-color="white" stop-opacity="0"/>
</linearGradient>
<linearGradient id="paint4_linear_97_2864" x1="34" y1="65.5" x2="22" y2="65.5" gradientUnits="userSpaceOnUse">
<stop stop-color="#367C4A"/>
<stop offset="0.23" stop-color="#367C4A" stop-opacity="0.99"/>
<stop offset="0.38" stop-color="#367C4A" stop-opacity="0.95"/>
<stop offset="0.49" stop-color="#367C4A" stop-opacity="0.89"/>
<stop offset="0.6" stop-color="#367C4A" stop-opacity="0.8"/>
<stop offset="0.69" stop-color="#367C4A" stop-opacity="0.68"/>
<stop offset="0.78" stop-color="#367C4A" stop-opacity="0.54"/>
<stop offset="0.86" stop-color="#367C4A" stop-opacity="0.37"/>
<stop offset="0.94" stop-color="#367C4A" stop-opacity="0.18"/>
<stop offset="1" stop-color="white" stop-opacity="0"/>
</linearGradient>
<linearGradient id="paint5_linear_97_2864" x1="57.2075" y1="56.4206" x2="57.2075" y2="67.4687" gradientUnits="userSpaceOnUse">
<stop stop-color="#367C4A"/>
<stop offset="0.23" stop-color="#367C4A" stop-opacity="0.99"/>
<stop offset="0.38" stop-color="#367C4A" stop-opacity="0.95"/>
<stop offset="0.49" stop-color="#367C4A" stop-opacity="0.89"/>
<stop offset="0.6" stop-color="#367C4A" stop-opacity="0.8"/>
<stop offset="0.69" stop-color="#367C4A" stop-opacity="0.68"/>
<stop offset="0.78" stop-color="#367C4A" stop-opacity="0.54"/>
<stop offset="0.86" stop-color="#367C4A" stop-opacity="0.37"/>
<stop offset="0.94" stop-color="#367C4A" stop-opacity="0.18"/>
<stop offset="1" stop-color="white" stop-opacity="0"/>
</linearGradient>
<linearGradient id="paint6_linear_97_2864" x1="57.2075" y1="11.4921" x2="57.2075" y2="22.5402" gradientUnits="userSpaceOnUse">
<stop stop-color="#367C4A"/>
<stop offset="0.23" stop-color="#367C4A" stop-opacity="0.99"/>
<stop offset="0.38" stop-color="#367C4A" stop-opacity="0.95"/>
<stop offset="0.49" stop-color="#367C4A" stop-opacity="0.89"/>
<stop offset="0.6" stop-color="#367C4A" stop-opacity="0.8"/>
<stop offset="0.69" stop-color="#367C4A" stop-opacity="0.68"/>
<stop offset="0.78" stop-color="#367C4A" stop-opacity="0.54"/>
<stop offset="0.86" stop-color="#367C4A" stop-opacity="0.37"/>
<stop offset="0.94" stop-color="#367C4A" stop-opacity="0.18"/>
<stop offset="1" stop-color="white" stop-opacity="0"/>
</linearGradient>
<linearGradient id="paint7_linear_97_2864" x1="57.2061" y1="34.0934" x2="57.2061" y2="45.1401" gradientUnits="userSpaceOnUse">
<stop stop-color="#367C4A"/>
<stop offset="0.23" stop-color="#367C4A" stop-opacity="0.99"/>
<stop offset="0.38" stop-color="#367C4A" stop-opacity="0.95"/>
<stop offset="0.49" stop-color="#367C4A" stop-opacity="0.89"/>
<stop offset="0.6" stop-color="#367C4A" stop-opacity="0.8"/>
<stop offset="0.69" stop-color="#367C4A" stop-opacity="0.68"/>
<stop offset="0.78" stop-color="#367C4A" stop-opacity="0.54"/>
<stop offset="0.86" stop-color="#367C4A" stop-opacity="0.37"/>
<stop offset="0.94" stop-color="#367C4A" stop-opacity="0.18"/>
<stop offset="1" stop-color="white" stop-opacity="0"/>
</linearGradient>
</defs>
</svg>
