<svg width="186" height="109" viewBox="0 0 186 109" fill="none" xmlns="http://www.w3.org/2000/svg">
<path d="M0 13L0 0L84 0V13L0 13Z" fill="url(#paint0_linear_97_3154)"/>
<path d="M0 82L0 68L84 68V82L0 82Z" fill="url(#paint1_linear_97_3154)"/>
<path d="M186 96V109H29V96H186Z" fill="url(#paint2_linear_97_3154)"/>
<path d="M73.3345 80.429V0.00170135H84.9469L99.8638 27.2026V108.804H89.2856L73.3345 80.429Z" fill="url(#paint3_linear_97_3154)"/>
<path d="M186 26V39H29V26H186Z" fill="url(#paint4_linear_97_3154)"/>
<path d="M121.935 109H108.931V25.6897H121.935V109Z" fill="url(#paint5_linear_97_3154)"/>
<path d="M174.826 109H161.822V25.6897H174.826V109Z" fill="url(#paint6_linear_97_3154)"/>
<path d="M148.221 109H135.217V25.6897H148.221V109Z" fill="url(#paint7_linear_97_3154)"/>
<path d="M139.879 103.402C139.879 102.35 140.732 101.498 141.783 101.498C142.835 101.498 143.688 102.35 143.688 103.402C143.688 104.454 142.835 105.306 141.783 105.306C140.732 105.306 139.879 104.454 139.879 103.402Z" fill="white"/>
<path d="M113.854 103.234C113.854 102.183 114.706 101.33 115.758 101.33C116.809 101.33 117.662 102.183 117.662 103.234C117.662 104.286 116.809 105.138 115.758 105.138C114.706 105.138 113.854 104.286 113.854 103.234Z" fill="white"/>
<path d="M167.08 103.348C167.08 102.297 167.933 101.444 168.984 101.444C170.036 101.444 170.888 102.297 170.888 103.348C170.888 104.4 170.036 105.252 168.984 105.252C167.933 105.252 167.08 104.4 167.08 103.348Z" fill="white"/>
<path d="M113.827 32.6864C113.827 31.6348 114.679 30.7823 115.731 30.7823C116.783 30.7823 117.635 31.6348 117.635 32.6864C117.635 33.738 116.783 34.5905 115.731 34.5905C114.679 34.5905 113.827 33.738 113.827 32.6864Z" fill="white"/>
<path d="M139.879 33.0491C139.879 31.9975 140.732 31.145 141.783 31.145C142.835 31.145 143.688 31.9975 143.688 33.0491C143.688 34.1006 142.835 34.9531 141.783 34.9531C140.732 34.9531 139.879 34.1006 139.879 33.0491Z" fill="white"/>
<path d="M167.08 32.3237C167.08 31.2721 167.933 30.4197 168.984 30.4197C170.036 30.4197 170.888 31.2721 170.888 32.3237C170.888 33.3753 170.036 34.2278 168.984 34.2278C167.933 34.2278 167.08 33.3753 167.08 32.3237Z" fill="white"/>
<defs>
<linearGradient id="paint0_linear_97_3154" x1="41.9992" y1="0" x2="41.9992" y2="13.0017" gradientUnits="userSpaceOnUse">
<stop stop-color="#2C5ABA"/>
<stop offset="0.23" stop-color="#2C5ABA" stop-opacity="0.99"/>
<stop offset="0.38" stop-color="#2C5ABA" stop-opacity="0.95"/>
<stop offset="0.49" stop-color="#2C5ABA" stop-opacity="0.89"/>
<stop offset="0.6" stop-color="#2C5ABA" stop-opacity="0.8"/>
<stop offset="0.69" stop-color="#2C5ABA" stop-opacity="0.68"/>
<stop offset="0.78" stop-color="#2C5ABA" stop-opacity="0.54"/>
<stop offset="0.86" stop-color="#2C5ABA" stop-opacity="0.37"/>
<stop offset="0.94" stop-color="#2C5ABA" stop-opacity="0.18"/>
<stop offset="1" stop-color="white" stop-opacity="0"/>
</linearGradient>
<linearGradient id="paint1_linear_97_3154" x1="41.9992" y1="68" x2="41.9992" y2="82" gradientUnits="userSpaceOnUse">
<stop stop-color="#2C5ABA"/>
<stop offset="0.23" stop-color="#2C5ABA" stop-opacity="0.99"/>
<stop offset="0.38" stop-color="#2C5ABA" stop-opacity="0.95"/>
<stop offset="0.49" stop-color="#2C5ABA" stop-opacity="0.89"/>
<stop offset="0.6" stop-color="#2C5ABA" stop-opacity="0.8"/>
<stop offset="0.69" stop-color="#2C5ABA" stop-opacity="0.68"/>
<stop offset="0.78" stop-color="#2C5ABA" stop-opacity="0.54"/>
<stop offset="0.86" stop-color="#2C5ABA" stop-opacity="0.37"/>
<stop offset="0.94" stop-color="#2C5ABA" stop-opacity="0.18"/>
<stop offset="1" stop-color="white" stop-opacity="0"/>
</linearGradient>
<linearGradient id="paint2_linear_97_3154" x1="107.501" y1="109" x2="107.501" y2="96" gradientUnits="userSpaceOnUse">
<stop stop-color="#2C5ABA"/>
<stop offset="0.23" stop-color="#2C5ABA" stop-opacity="0.99"/>
<stop offset="0.38" stop-color="#2C5ABA" stop-opacity="0.95"/>
<stop offset="0.49" stop-color="#2C5ABA" stop-opacity="0.89"/>
<stop offset="0.6" stop-color="#2C5ABA" stop-opacity="0.8"/>
<stop offset="0.69" stop-color="#2C5ABA" stop-opacity="0.68"/>
<stop offset="0.78" stop-color="#2C5ABA" stop-opacity="0.54"/>
<stop offset="0.86" stop-color="#2C5ABA" stop-opacity="0.37"/>
<stop offset="0.94" stop-color="#2C5ABA" stop-opacity="0.18"/>
<stop offset="1" stop-color="white" stop-opacity="0"/>
</linearGradient>
<linearGradient id="paint3_linear_97_3154" x1="74.174" y1="54.4018" x2="99.8638" y2="54.4018" gradientUnits="userSpaceOnUse">
<stop stop-color="#2C5ABA"/>
<stop offset="0.23" stop-color="#2C5ABA" stop-opacity="0.99"/>
<stop offset="0.38" stop-color="#2C5ABA" stop-opacity="0.95"/>
<stop offset="0.49" stop-color="#2C5ABA" stop-opacity="0.89"/>
<stop offset="0.6" stop-color="#2C5ABA" stop-opacity="0.8"/>
<stop offset="0.69" stop-color="#2C5ABA" stop-opacity="0.68"/>
<stop offset="0.78" stop-color="#2C5ABA" stop-opacity="0.54"/>
<stop offset="0.86" stop-color="#2C5ABA" stop-opacity="0.37"/>
<stop offset="0.94" stop-color="#2C5ABA" stop-opacity="0.18"/>
<stop offset="1" stop-color="white" stop-opacity="0"/>
</linearGradient>
<linearGradient id="paint4_linear_97_3154" x1="107.5" y1="39" x2="107.5" y2="26" gradientUnits="userSpaceOnUse">
<stop stop-color="#2C5ABA"/>
<stop offset="0.23" stop-color="#2C5ABA" stop-opacity="0.99"/>
<stop offset="0.38" stop-color="#2C5ABA" stop-opacity="0.95"/>
<stop offset="0.49" stop-color="#2C5ABA" stop-opacity="0.89"/>
<stop offset="0.6" stop-color="#2C5ABA" stop-opacity="0.8"/>
<stop offset="0.69" stop-color="#2C5ABA" stop-opacity="0.68"/>
<stop offset="0.78" stop-color="#2C5ABA" stop-opacity="0.54"/>
<stop offset="0.86" stop-color="#2C5ABA" stop-opacity="0.37"/>
<stop offset="0.94" stop-color="#2C5ABA" stop-opacity="0.18"/>
<stop offset="1" stop-color="white" stop-opacity="0"/>
</linearGradient>
<linearGradient id="paint5_linear_97_3154" x1="121.935" y1="67.3457" x2="108.929" y2="67.3457" gradientUnits="userSpaceOnUse">
<stop stop-color="#2C5ABA"/>
<stop offset="0.23" stop-color="#2C5ABA" stop-opacity="0.99"/>
<stop offset="0.38" stop-color="#2C5ABA" stop-opacity="0.95"/>
<stop offset="0.49" stop-color="#2C5ABA" stop-opacity="0.89"/>
<stop offset="0.6" stop-color="#2C5ABA" stop-opacity="0.8"/>
<stop offset="0.69" stop-color="#2C5ABA" stop-opacity="0.68"/>
<stop offset="0.78" stop-color="#2C5ABA" stop-opacity="0.54"/>
<stop offset="0.86" stop-color="#2C5ABA" stop-opacity="0.37"/>
<stop offset="0.94" stop-color="#2C5ABA" stop-opacity="0.18"/>
<stop offset="1" stop-color="white" stop-opacity="0"/>
</linearGradient>
<linearGradient id="paint6_linear_97_3154" x1="174.826" y1="67.3457" x2="161.82" y2="67.3457" gradientUnits="userSpaceOnUse">
<stop stop-color="#2C5ABA"/>
<stop offset="0.23" stop-color="#2C5ABA" stop-opacity="0.99"/>
<stop offset="0.38" stop-color="#2C5ABA" stop-opacity="0.95"/>
<stop offset="0.49" stop-color="#2C5ABA" stop-opacity="0.89"/>
<stop offset="0.6" stop-color="#2C5ABA" stop-opacity="0.8"/>
<stop offset="0.69" stop-color="#2C5ABA" stop-opacity="0.68"/>
<stop offset="0.78" stop-color="#2C5ABA" stop-opacity="0.54"/>
<stop offset="0.86" stop-color="#2C5ABA" stop-opacity="0.37"/>
<stop offset="0.94" stop-color="#2C5ABA" stop-opacity="0.18"/>
<stop offset="1" stop-color="white" stop-opacity="0"/>
</linearGradient>
<linearGradient id="paint7_linear_97_3154" x1="148.219" y1="67.344" x2="135.215" y2="67.344" gradientUnits="userSpaceOnUse">
<stop stop-color="#2C5ABA"/>
<stop offset="0.23" stop-color="#2C5ABA" stop-opacity="0.99"/>
<stop offset="0.38" stop-color="#2C5ABA" stop-opacity="0.95"/>
<stop offset="0.49" stop-color="#2C5ABA" stop-opacity="0.89"/>
<stop offset="0.6" stop-color="#2C5ABA" stop-opacity="0.8"/>
<stop offset="0.69" stop-color="#2C5ABA" stop-opacity="0.68"/>
<stop offset="0.78" stop-color="#2C5ABA" stop-opacity="0.54"/>
<stop offset="0.86" stop-color="#2C5ABA" stop-opacity="0.37"/>
<stop offset="0.94" stop-color="#2C5ABA" stop-opacity="0.18"/>
<stop offset="1" stop-color="white" stop-opacity="0"/>
</linearGradient>
</defs>
</svg>
