<svg width="124" height="186" viewBox="0 0 124 186" fill="none" xmlns="http://www.w3.org/2000/svg">
<path d="M96 181H109L109 99.2581H96L96 181Z" fill="url(#paint0_linear_182_9)"/>
<path d="M27 181H41L41 99.2581H27L27 181Z" fill="url(#paint1_linear_182_9)"/>
<path d="M13 0H0V152.78H13V0Z" fill="url(#paint2_linear_182_9)"/>
<path d="M28.5708 109.637H108.998V98.3366L81.7973 83.8208H0.196289V94.1146L28.5708 109.637Z" fill="url(#paint3_linear_182_9)"/>
<path d="M83 0H70V152.78H83V0Z" fill="url(#paint4_linear_182_9)"/>
<path d="M0 62.3428L0 74.9976H83.3103V62.3428L0 62.3428Z" fill="url(#paint5_linear_182_9)"/>
<path d="M0 10.874L0 23.5288L83.3103 23.5288V10.874L0 10.874Z" fill="url(#paint6_linear_182_9)"/>
<path d="M0 36.7632L0 49.418L83.3103 49.418V36.7632L0 36.7632Z" fill="url(#paint7_linear_182_9)"/>
<path d="M5.59791 44.8808C6.64949 44.8808 7.50197 44.0512 7.50197 43.0279C7.50197 42.0046 6.64949 41.175 5.59791 41.175C4.54632 41.175 3.69385 42.0046 3.69385 43.0279C3.69385 44.0512 4.54632 44.8808 5.59791 44.8808Z" fill="white"/>
<path d="M5.76588 70.2065C6.81746 70.2065 7.66994 69.3769 7.66994 68.3536C7.66994 67.3303 6.81746 66.5007 5.76588 66.5007C4.71429 66.5007 3.86182 67.3303 3.86182 68.3536C3.86182 69.3769 4.71429 70.2065 5.76588 70.2065Z" fill="white"/>
<path d="M5.65186 18.4111C6.70345 18.4111 7.55593 17.5815 7.55593 16.5582C7.55593 15.5349 6.70345 14.7053 5.65186 14.7053C4.60028 14.7053 3.7478 15.5349 3.7478 16.5582C3.7478 17.5815 4.60028 18.4111 5.65186 18.4111Z" fill="white"/>
<path d="M76.3137 70.2329C77.3653 70.2329 78.2178 69.4033 78.2178 68.38C78.2178 67.3567 77.3653 66.5271 76.3137 66.5271C75.2622 66.5271 74.4097 67.3567 74.4097 68.38C74.4097 69.4033 75.2622 70.2329 76.3137 70.2329Z" fill="white"/>
<path d="M75.9509 44.8808C77.0025 44.8808 77.855 44.0512 77.855 43.0279C77.855 42.0046 77.0025 41.175 75.9509 41.175C74.8994 41.175 74.0469 42.0046 74.0469 43.0279C74.0469 44.0512 74.8994 44.8808 75.9509 44.8808Z" fill="white"/>
<path d="M76.6763 18.4111C77.7279 18.4111 78.5803 17.5815 78.5803 16.5582C78.5803 15.5349 77.7279 14.7053 76.6763 14.7053C75.6247 14.7053 74.7722 15.5349 74.7722 16.5582C74.7722 17.5815 75.6247 18.4111 76.6763 18.4111Z" fill="white"/>
<path d="M28 5L15 5L15 86.7419H28L28 5Z" fill="url(#paint8_linear_182_9)"/>
<path d="M97 5L83 5L83 86.7419H97L97 5Z" fill="url(#paint9_linear_182_9)"/>
<path d="M111 186H124V33.2204H111V186Z" fill="url(#paint10_linear_182_9)"/>
<path d="M95.4292 76.3631H15.0018V87.6634L42.2027 102.179H123.804V91.8854L95.4292 76.3631Z" fill="url(#paint11_linear_182_9)"/>
<path d="M41 186H54V33.2204H41V186Z" fill="url(#paint12_linear_182_9)"/>
<path d="M124 123.657V111.002H40.6897V123.657H124Z" fill="url(#paint13_linear_182_9)"/>
<path d="M124 175.126V162.471H40.6897V175.126H124Z" fill="url(#paint14_linear_182_9)"/>
<path d="M124 149.237V136.582H40.6897V149.237H124Z" fill="url(#paint15_linear_182_9)"/>
<path d="M118.402 141.119C117.351 141.119 116.498 141.949 116.498 142.972C116.498 143.995 117.351 144.825 118.402 144.825C119.454 144.825 120.306 143.995 120.306 142.972C120.306 141.949 119.454 141.119 118.402 141.119Z" fill="white"/>
<path d="M118.234 115.794C117.183 115.794 116.33 116.623 116.33 117.646C116.33 118.67 117.183 119.499 118.234 119.499C119.286 119.499 120.138 118.67 120.138 117.646C120.138 116.623 119.286 115.794 118.234 115.794Z" fill="white"/>
<path d="M118.348 167.589C117.297 167.589 116.444 168.418 116.444 169.442C116.444 170.465 117.297 171.295 118.348 171.295C119.4 171.295 120.252 170.465 120.252 169.442C120.252 168.418 119.4 167.589 118.348 167.589Z" fill="white"/>
<path d="M47.6863 115.767C46.6347 115.767 45.7822 116.597 45.7822 117.62C45.7822 118.643 46.6347 119.473 47.6863 119.473C48.7378 119.473 49.5903 118.643 49.5903 117.62C49.5903 116.597 48.7378 115.767 47.6863 115.767Z" fill="white"/>
<path d="M48.0491 141.119C46.9975 141.119 46.145 141.949 46.145 142.972C46.145 143.995 46.9975 144.825 48.0491 144.825C49.1006 144.825 49.9531 143.995 49.9531 142.972C49.9531 141.949 49.1006 141.119 48.0491 141.119Z" fill="white"/>
<path d="M47.3237 167.589C46.2721 167.589 45.4197 168.418 45.4197 169.442C45.4197 170.465 46.2721 171.295 47.3237 171.295C48.3753 171.295 49.2278 170.465 49.2278 169.442C49.2278 168.418 48.3753 167.589 47.3237 167.589Z" fill="white"/>
<defs>
<linearGradient id="paint0_linear_182_9" x1="109" y1="140.13" x2="95.9983" y2="140.13" gradientUnits="userSpaceOnUse">
<stop stop-color="#A78D3A"/>
<stop offset="0.23" stop-color="#A78D3A" stop-opacity="0.99"/>
<stop offset="0.38" stop-color="#A78D3A" stop-opacity="0.95"/>
<stop offset="0.49" stop-color="#A78D3A" stop-opacity="0.89"/>
<stop offset="0.6" stop-color="#A78D3A" stop-opacity="0.8"/>
<stop offset="0.69" stop-color="#A78D3A" stop-opacity="0.68"/>
<stop offset="0.78" stop-color="#A78D3A" stop-opacity="0.54"/>
<stop offset="0.86" stop-color="#A78D3A" stop-opacity="0.37"/>
<stop offset="0.94" stop-color="#A78D3A" stop-opacity="0.18"/>
<stop offset="1" stop-color="white" stop-opacity="0"/>
</linearGradient>
<linearGradient id="paint1_linear_182_9" x1="41" y1="140.13" x2="27" y2="140.13" gradientUnits="userSpaceOnUse">
<stop stop-color="#A78D3A"/>
<stop offset="0.23" stop-color="#A78D3A" stop-opacity="0.99"/>
<stop offset="0.38" stop-color="#A78D3A" stop-opacity="0.95"/>
<stop offset="0.49" stop-color="#A78D3A" stop-opacity="0.89"/>
<stop offset="0.6" stop-color="#A78D3A" stop-opacity="0.8"/>
<stop offset="0.69" stop-color="#A78D3A" stop-opacity="0.68"/>
<stop offset="0.78" stop-color="#A78D3A" stop-opacity="0.54"/>
<stop offset="0.86" stop-color="#A78D3A" stop-opacity="0.37"/>
<stop offset="0.94" stop-color="#A78D3A" stop-opacity="0.18"/>
<stop offset="1" stop-color="white" stop-opacity="0"/>
</linearGradient>
<linearGradient id="paint2_linear_182_9" x1="0" y1="76.389" x2="13" y2="76.389" gradientUnits="userSpaceOnUse">
<stop stop-color="#A78D3A"/>
<stop offset="0.23" stop-color="#A78D3A" stop-opacity="0.99"/>
<stop offset="0.38" stop-color="#A78D3A" stop-opacity="0.95"/>
<stop offset="0.49" stop-color="#A78D3A" stop-opacity="0.89"/>
<stop offset="0.6" stop-color="#A78D3A" stop-opacity="0.8"/>
<stop offset="0.69" stop-color="#A78D3A" stop-opacity="0.68"/>
<stop offset="0.78" stop-color="#A78D3A" stop-opacity="0.54"/>
<stop offset="0.86" stop-color="#A78D3A" stop-opacity="0.37"/>
<stop offset="0.94" stop-color="#A78D3A" stop-opacity="0.18"/>
<stop offset="1" stop-color="white" stop-opacity="0"/>
</linearGradient>
<linearGradient id="paint3_linear_182_9" x1="54.5981" y1="108.82" x2="54.5981" y2="83.8208" gradientUnits="userSpaceOnUse">
<stop stop-color="#A78D3A"/>
<stop offset="0.23" stop-color="#A78D3A" stop-opacity="0.99"/>
<stop offset="0.38" stop-color="#A78D3A" stop-opacity="0.95"/>
<stop offset="0.49" stop-color="#A78D3A" stop-opacity="0.89"/>
<stop offset="0.6" stop-color="#A78D3A" stop-opacity="0.8"/>
<stop offset="0.69" stop-color="#A78D3A" stop-opacity="0.68"/>
<stop offset="0.78" stop-color="#A78D3A" stop-opacity="0.54"/>
<stop offset="0.86" stop-color="#A78D3A" stop-opacity="0.37"/>
<stop offset="0.94" stop-color="#A78D3A" stop-opacity="0.18"/>
<stop offset="1" stop-color="white" stop-opacity="0"/>
</linearGradient>
<linearGradient id="paint4_linear_182_9" x1="70" y1="76.3898" x2="83" y2="76.3898" gradientUnits="userSpaceOnUse">
<stop stop-color="#A78D3A"/>
<stop offset="0.23" stop-color="#A78D3A" stop-opacity="0.99"/>
<stop offset="0.38" stop-color="#A78D3A" stop-opacity="0.95"/>
<stop offset="0.49" stop-color="#A78D3A" stop-opacity="0.89"/>
<stop offset="0.6" stop-color="#A78D3A" stop-opacity="0.8"/>
<stop offset="0.69" stop-color="#A78D3A" stop-opacity="0.68"/>
<stop offset="0.78" stop-color="#A78D3A" stop-opacity="0.54"/>
<stop offset="0.86" stop-color="#A78D3A" stop-opacity="0.37"/>
<stop offset="0.94" stop-color="#A78D3A" stop-opacity="0.18"/>
<stop offset="1" stop-color="white" stop-opacity="0"/>
</linearGradient>
<linearGradient id="paint5_linear_182_9" x1="41.6543" y1="62.3428" x2="41.6543" y2="74.9992" gradientUnits="userSpaceOnUse">
<stop stop-color="#A78D3A"/>
<stop offset="0.23" stop-color="#A78D3A" stop-opacity="0.99"/>
<stop offset="0.38" stop-color="#A78D3A" stop-opacity="0.95"/>
<stop offset="0.49" stop-color="#A78D3A" stop-opacity="0.89"/>
<stop offset="0.6" stop-color="#A78D3A" stop-opacity="0.8"/>
<stop offset="0.69" stop-color="#A78D3A" stop-opacity="0.68"/>
<stop offset="0.78" stop-color="#A78D3A" stop-opacity="0.54"/>
<stop offset="0.86" stop-color="#A78D3A" stop-opacity="0.37"/>
<stop offset="0.94" stop-color="#A78D3A" stop-opacity="0.18"/>
<stop offset="1" stop-color="white" stop-opacity="0"/>
</linearGradient>
<linearGradient id="paint6_linear_182_9" x1="41.6543" y1="10.874" x2="41.6543" y2="23.5304" gradientUnits="userSpaceOnUse">
<stop stop-color="#A78D3A"/>
<stop offset="0.23" stop-color="#A78D3A" stop-opacity="0.99"/>
<stop offset="0.38" stop-color="#A78D3A" stop-opacity="0.95"/>
<stop offset="0.49" stop-color="#A78D3A" stop-opacity="0.89"/>
<stop offset="0.6" stop-color="#A78D3A" stop-opacity="0.8"/>
<stop offset="0.69" stop-color="#A78D3A" stop-opacity="0.68"/>
<stop offset="0.78" stop-color="#A78D3A" stop-opacity="0.54"/>
<stop offset="0.86" stop-color="#A78D3A" stop-opacity="0.37"/>
<stop offset="0.94" stop-color="#A78D3A" stop-opacity="0.18"/>
<stop offset="1" stop-color="white" stop-opacity="0"/>
</linearGradient>
<linearGradient id="paint7_linear_182_9" x1="41.656" y1="36.7648" x2="41.656" y2="49.4196" gradientUnits="userSpaceOnUse">
<stop stop-color="#A78D3A"/>
<stop offset="0.23" stop-color="#A78D3A" stop-opacity="0.99"/>
<stop offset="0.38" stop-color="#A78D3A" stop-opacity="0.95"/>
<stop offset="0.49" stop-color="#A78D3A" stop-opacity="0.89"/>
<stop offset="0.6" stop-color="#A78D3A" stop-opacity="0.8"/>
<stop offset="0.69" stop-color="#A78D3A" stop-opacity="0.68"/>
<stop offset="0.78" stop-color="#A78D3A" stop-opacity="0.54"/>
<stop offset="0.86" stop-color="#A78D3A" stop-opacity="0.37"/>
<stop offset="0.94" stop-color="#A78D3A" stop-opacity="0.18"/>
<stop offset="1" stop-color="white" stop-opacity="0"/>
</linearGradient>
<linearGradient id="paint8_linear_182_9" x1="15" y1="45.8702" x2="28.0017" y2="45.8702" gradientUnits="userSpaceOnUse">
<stop stop-color="#A2CDC3"/>
<stop offset="0.23" stop-color="#A2CDC3" stop-opacity="0.99"/>
<stop offset="0.38" stop-color="#A2CDC3" stop-opacity="0.95"/>
<stop offset="0.49" stop-color="#A2CDC3" stop-opacity="0.89"/>
<stop offset="0.6" stop-color="#A2CDC3" stop-opacity="0.8"/>
<stop offset="0.69" stop-color="#A2CDC3" stop-opacity="0.68"/>
<stop offset="0.78" stop-color="#A2CDC3" stop-opacity="0.54"/>
<stop offset="0.86" stop-color="#A2CDC3" stop-opacity="0.37"/>
<stop offset="0.94" stop-color="#A2CDC3" stop-opacity="0.18"/>
<stop offset="1" stop-color="white" stop-opacity="0"/>
</linearGradient>
<linearGradient id="paint9_linear_182_9" x1="83" y1="45.8702" x2="97" y2="45.8702" gradientUnits="userSpaceOnUse">
<stop stop-color="#A2CDC3"/>
<stop offset="0.23" stop-color="#A2CDC3" stop-opacity="0.99"/>
<stop offset="0.38" stop-color="#A2CDC3" stop-opacity="0.95"/>
<stop offset="0.49" stop-color="#A2CDC3" stop-opacity="0.89"/>
<stop offset="0.6" stop-color="#A2CDC3" stop-opacity="0.8"/>
<stop offset="0.69" stop-color="#A2CDC3" stop-opacity="0.68"/>
<stop offset="0.78" stop-color="#A2CDC3" stop-opacity="0.54"/>
<stop offset="0.86" stop-color="#A2CDC3" stop-opacity="0.37"/>
<stop offset="0.94" stop-color="#A2CDC3" stop-opacity="0.18"/>
<stop offset="1" stop-color="white" stop-opacity="0"/>
</linearGradient>
<linearGradient id="paint10_linear_182_9" x1="124" y1="109.611" x2="111" y2="109.611" gradientUnits="userSpaceOnUse">
<stop stop-color="#A2CDC3"/>
<stop offset="0.23" stop-color="#A2CDC3" stop-opacity="0.99"/>
<stop offset="0.38" stop-color="#A2CDC3" stop-opacity="0.95"/>
<stop offset="0.49" stop-color="#A2CDC3" stop-opacity="0.89"/>
<stop offset="0.6" stop-color="#A2CDC3" stop-opacity="0.8"/>
<stop offset="0.69" stop-color="#A2CDC3" stop-opacity="0.68"/>
<stop offset="0.78" stop-color="#A2CDC3" stop-opacity="0.54"/>
<stop offset="0.86" stop-color="#A2CDC3" stop-opacity="0.37"/>
<stop offset="0.94" stop-color="#A2CDC3" stop-opacity="0.18"/>
<stop offset="1" stop-color="white" stop-opacity="0"/>
</linearGradient>
<linearGradient id="paint11_linear_182_9" x1="69.4019" y1="77.1801" x2="69.4019" y2="102.179" gradientUnits="userSpaceOnUse">
<stop stop-color="#A2CDC3"/>
<stop offset="0.23" stop-color="#A2CDC3" stop-opacity="0.99"/>
<stop offset="0.38" stop-color="#A2CDC3" stop-opacity="0.95"/>
<stop offset="0.49" stop-color="#A2CDC3" stop-opacity="0.89"/>
<stop offset="0.6" stop-color="#A2CDC3" stop-opacity="0.8"/>
<stop offset="0.69" stop-color="#A2CDC3" stop-opacity="0.68"/>
<stop offset="0.78" stop-color="#A2CDC3" stop-opacity="0.54"/>
<stop offset="0.86" stop-color="#A2CDC3" stop-opacity="0.37"/>
<stop offset="0.94" stop-color="#A2CDC3" stop-opacity="0.18"/>
<stop offset="1" stop-color="white" stop-opacity="0"/>
</linearGradient>
<linearGradient id="paint12_linear_182_9" x1="54" y1="109.61" x2="41" y2="109.61" gradientUnits="userSpaceOnUse">
<stop stop-color="#A2CDC3"/>
<stop offset="0.23" stop-color="#A2CDC3" stop-opacity="0.99"/>
<stop offset="0.38" stop-color="#A2CDC3" stop-opacity="0.95"/>
<stop offset="0.49" stop-color="#A2CDC3" stop-opacity="0.89"/>
<stop offset="0.6" stop-color="#A2CDC3" stop-opacity="0.8"/>
<stop offset="0.69" stop-color="#A2CDC3" stop-opacity="0.68"/>
<stop offset="0.78" stop-color="#A2CDC3" stop-opacity="0.54"/>
<stop offset="0.86" stop-color="#A2CDC3" stop-opacity="0.37"/>
<stop offset="0.94" stop-color="#A2CDC3" stop-opacity="0.18"/>
<stop offset="1" stop-color="white" stop-opacity="0"/>
</linearGradient>
<linearGradient id="paint13_linear_182_9" x1="82.3457" y1="123.657" x2="82.3457" y2="111.001" gradientUnits="userSpaceOnUse">
<stop stop-color="#A2CDC3"/>
<stop offset="0.23" stop-color="#A2CDC3" stop-opacity="0.99"/>
<stop offset="0.38" stop-color="#A2CDC3" stop-opacity="0.95"/>
<stop offset="0.49" stop-color="#A2CDC3" stop-opacity="0.89"/>
<stop offset="0.6" stop-color="#A2CDC3" stop-opacity="0.8"/>
<stop offset="0.69" stop-color="#A2CDC3" stop-opacity="0.68"/>
<stop offset="0.78" stop-color="#A2CDC3" stop-opacity="0.54"/>
<stop offset="0.86" stop-color="#A2CDC3" stop-opacity="0.37"/>
<stop offset="0.94" stop-color="#A2CDC3" stop-opacity="0.18"/>
<stop offset="1" stop-color="white" stop-opacity="0"/>
</linearGradient>
<linearGradient id="paint14_linear_182_9" x1="82.3457" y1="175.126" x2="82.3457" y2="162.47" gradientUnits="userSpaceOnUse">
<stop stop-color="#A2CDC3"/>
<stop offset="0.23" stop-color="#A2CDC3" stop-opacity="0.99"/>
<stop offset="0.38" stop-color="#A2CDC3" stop-opacity="0.95"/>
<stop offset="0.49" stop-color="#A2CDC3" stop-opacity="0.89"/>
<stop offset="0.6" stop-color="#A2CDC3" stop-opacity="0.8"/>
<stop offset="0.69" stop-color="#A2CDC3" stop-opacity="0.68"/>
<stop offset="0.78" stop-color="#A2CDC3" stop-opacity="0.54"/>
<stop offset="0.86" stop-color="#A2CDC3" stop-opacity="0.37"/>
<stop offset="0.94" stop-color="#A2CDC3" stop-opacity="0.18"/>
<stop offset="1" stop-color="white" stop-opacity="0"/>
</linearGradient>
<linearGradient id="paint15_linear_182_9" x1="82.344" y1="149.235" x2="82.344" y2="136.58" gradientUnits="userSpaceOnUse">
<stop stop-color="#A2CDC3"/>
<stop offset="0.23" stop-color="#A2CDC3" stop-opacity="0.99"/>
<stop offset="0.38" stop-color="#A2CDC3" stop-opacity="0.95"/>
<stop offset="0.49" stop-color="#A2CDC3" stop-opacity="0.89"/>
<stop offset="0.6" stop-color="#A2CDC3" stop-opacity="0.8"/>
<stop offset="0.69" stop-color="#A2CDC3" stop-opacity="0.68"/>
<stop offset="0.78" stop-color="#A2CDC3" stop-opacity="0.54"/>
<stop offset="0.86" stop-color="#A2CDC3" stop-opacity="0.37"/>
<stop offset="0.94" stop-color="#A2CDC3" stop-opacity="0.18"/>
<stop offset="1" stop-color="white" stop-opacity="0"/>
</linearGradient>
</defs>
</svg>
