<svg width="100" height="171" viewBox="0 0 100 171" fill="none" xmlns="http://www.w3.org/2000/svg">
<path d="M11.9266 170.21H0L0 93.3409H11.9266L11.9266 170.21Z" fill="url(#paint0_linear_97_2903)"/>
<path d="M75.2293 170.21H62.3853L62.3853 93.3409H75.2293L75.2293 170.21Z" fill="url(#paint1_linear_97_2903)"/>
<path d="M87.23 0H100V139.36H87.23V0Z" fill="url(#paint2_linear_97_2903)"/>
<path d="M73.7879 103.101H0.0013365V92.4745L24.9563 78.824H99.8196V88.5041L73.7879 103.101Z" fill="url(#paint3_linear_97_2903)"/>
<path d="M23.0098 0H35.7798V139.36H23.0098V0Z" fill="url(#paint4_linear_97_2903)"/>
<path d="M100 58.6262V70.5266H23.5686V58.6262H100Z" fill="url(#paint5_linear_97_2903)"/>
<path d="M100 10.2256V22.126L23.5686 22.126V10.2256L100 10.2256Z" fill="url(#paint6_linear_97_2903)"/>
<path d="M100 34.572V46.4724L23.5686 46.4724V34.572H100Z" fill="url(#paint7_linear_97_2903)"/>
<path d="M94.8642 42.2053C93.8995 42.2053 93.1174 41.4252 93.1174 40.4629C93.1174 39.5006 93.8995 38.7205 94.8642 38.7205C95.829 38.7205 96.6111 39.5006 96.6111 40.4629C96.6111 41.4252 95.829 42.2053 94.8642 42.2053Z" fill="white"/>
<path d="M94.7102 66.0215C93.7454 66.0215 92.9633 65.2414 92.9633 64.279C92.9633 63.3167 93.7454 62.5366 94.7102 62.5366C95.6749 62.5366 96.457 63.3167 96.457 64.279C96.457 65.2414 95.6749 66.0215 94.7102 66.0215Z" fill="white"/>
<path d="M94.8149 17.3135C93.8502 17.3135 93.0681 16.5333 93.0681 15.571C93.0681 14.6087 93.8502 13.8286 94.8149 13.8286C95.7797 13.8286 96.5618 14.6087 96.5618 15.571C96.5618 16.5333 95.7797 17.3135 94.8149 17.3135Z" fill="white"/>
<path d="M29.9875 66.0461C29.0228 66.0461 28.2407 65.266 28.2407 64.3037C28.2407 63.3414 29.0228 62.5613 29.9875 62.5613C30.9523 62.5613 31.7344 63.3414 31.7344 64.3037C31.7344 65.266 30.9523 66.0461 29.9875 66.0461Z" fill="white"/>
<path d="M30.3203 42.2053C29.3555 42.2053 28.5734 41.4252 28.5734 40.4629C28.5734 39.5006 29.3555 38.7205 30.3203 38.7205C31.285 38.7205 32.0671 39.5006 32.0671 40.4629C32.0671 41.4252 31.285 42.2053 30.3203 42.2053Z" fill="white"/>
<path d="M29.6548 17.3135C28.69 17.3135 27.9079 16.5333 27.9079 15.571C27.9079 14.6087 28.69 13.8286 29.6548 13.8286C30.6195 13.8286 31.4016 14.6087 31.4016 15.571C31.4016 16.5333 30.6195 17.3135 29.6548 17.3135Z" fill="white"/>
<defs>
<linearGradient id="paint0_linear_97_2903" x1="0" y1="131.776" x2="11.9281" y2="131.776" gradientUnits="userSpaceOnUse">
<stop stop-color="#A78D3A"/>
<stop offset="0.23" stop-color="#A78D3A" stop-opacity="0.99"/>
<stop offset="0.38" stop-color="#A78D3A" stop-opacity="0.95"/>
<stop offset="0.49" stop-color="#A78D3A" stop-opacity="0.89"/>
<stop offset="0.6" stop-color="#A78D3A" stop-opacity="0.8"/>
<stop offset="0.69" stop-color="#A78D3A" stop-opacity="0.68"/>
<stop offset="0.78" stop-color="#A78D3A" stop-opacity="0.54"/>
<stop offset="0.86" stop-color="#A78D3A" stop-opacity="0.37"/>
<stop offset="0.94" stop-color="#A78D3A" stop-opacity="0.18"/>
<stop offset="1" stop-color="white" stop-opacity="0"/>
</linearGradient>
<linearGradient id="paint1_linear_97_2903" x1="62.3853" y1="131.776" x2="75.2293" y2="131.776" gradientUnits="userSpaceOnUse">
<stop stop-color="#A78D3A"/>
<stop offset="0.23" stop-color="#A78D3A" stop-opacity="0.99"/>
<stop offset="0.38" stop-color="#A78D3A" stop-opacity="0.95"/>
<stop offset="0.49" stop-color="#A78D3A" stop-opacity="0.89"/>
<stop offset="0.6" stop-color="#A78D3A" stop-opacity="0.8"/>
<stop offset="0.69" stop-color="#A78D3A" stop-opacity="0.68"/>
<stop offset="0.78" stop-color="#A78D3A" stop-opacity="0.54"/>
<stop offset="0.86" stop-color="#A78D3A" stop-opacity="0.37"/>
<stop offset="0.94" stop-color="#A78D3A" stop-opacity="0.18"/>
<stop offset="1" stop-color="white" stop-opacity="0"/>
</linearGradient>
<linearGradient id="paint2_linear_97_2903" x1="100" y1="69.6793" x2="87.23" y2="69.6793" gradientUnits="userSpaceOnUse">
<stop stop-color="#A78D3A"/>
<stop offset="0.23" stop-color="#A78D3A" stop-opacity="0.99"/>
<stop offset="0.38" stop-color="#A78D3A" stop-opacity="0.95"/>
<stop offset="0.49" stop-color="#A78D3A" stop-opacity="0.89"/>
<stop offset="0.6" stop-color="#A78D3A" stop-opacity="0.8"/>
<stop offset="0.69" stop-color="#A78D3A" stop-opacity="0.68"/>
<stop offset="0.78" stop-color="#A78D3A" stop-opacity="0.54"/>
<stop offset="0.86" stop-color="#A78D3A" stop-opacity="0.37"/>
<stop offset="0.94" stop-color="#A78D3A" stop-opacity="0.18"/>
<stop offset="1" stop-color="white" stop-opacity="0"/>
</linearGradient>
<linearGradient id="paint3_linear_97_2903" x1="49.9097" y1="102.333" x2="49.9097" y2="78.824" gradientUnits="userSpaceOnUse">
<stop stop-color="#A78D3A"/>
<stop offset="0.23" stop-color="#A78D3A" stop-opacity="0.99"/>
<stop offset="0.38" stop-color="#A78D3A" stop-opacity="0.95"/>
<stop offset="0.49" stop-color="#A78D3A" stop-opacity="0.89"/>
<stop offset="0.6" stop-color="#A78D3A" stop-opacity="0.8"/>
<stop offset="0.69" stop-color="#A78D3A" stop-opacity="0.68"/>
<stop offset="0.78" stop-color="#A78D3A" stop-opacity="0.54"/>
<stop offset="0.86" stop-color="#A78D3A" stop-opacity="0.37"/>
<stop offset="0.94" stop-color="#A78D3A" stop-opacity="0.18"/>
<stop offset="1" stop-color="white" stop-opacity="0"/>
</linearGradient>
<linearGradient id="paint4_linear_97_2903" x1="35.7798" y1="69.68" x2="23.0098" y2="69.68" gradientUnits="userSpaceOnUse">
<stop stop-color="#A78D3A"/>
<stop offset="0.23" stop-color="#A78D3A" stop-opacity="0.99"/>
<stop offset="0.38" stop-color="#A78D3A" stop-opacity="0.95"/>
<stop offset="0.49" stop-color="#A78D3A" stop-opacity="0.89"/>
<stop offset="0.6" stop-color="#A78D3A" stop-opacity="0.8"/>
<stop offset="0.69" stop-color="#A78D3A" stop-opacity="0.68"/>
<stop offset="0.78" stop-color="#A78D3A" stop-opacity="0.54"/>
<stop offset="0.86" stop-color="#A78D3A" stop-opacity="0.37"/>
<stop offset="0.94" stop-color="#A78D3A" stop-opacity="0.18"/>
<stop offset="1" stop-color="white" stop-opacity="0"/>
</linearGradient>
<linearGradient id="paint5_linear_97_2903" x1="61.785" y1="58.6262" x2="61.785" y2="70.5281" gradientUnits="userSpaceOnUse">
<stop stop-color="#A78D3A"/>
<stop offset="0.23" stop-color="#A78D3A" stop-opacity="0.99"/>
<stop offset="0.38" stop-color="#A78D3A" stop-opacity="0.95"/>
<stop offset="0.49" stop-color="#A78D3A" stop-opacity="0.89"/>
<stop offset="0.6" stop-color="#A78D3A" stop-opacity="0.8"/>
<stop offset="0.69" stop-color="#A78D3A" stop-opacity="0.68"/>
<stop offset="0.78" stop-color="#A78D3A" stop-opacity="0.54"/>
<stop offset="0.86" stop-color="#A78D3A" stop-opacity="0.37"/>
<stop offset="0.94" stop-color="#A78D3A" stop-opacity="0.18"/>
<stop offset="1" stop-color="white" stop-opacity="0"/>
</linearGradient>
<linearGradient id="paint6_linear_97_2903" x1="61.785" y1="10.2256" x2="61.785" y2="22.1275" gradientUnits="userSpaceOnUse">
<stop stop-color="#A78D3A"/>
<stop offset="0.23" stop-color="#A78D3A" stop-opacity="0.99"/>
<stop offset="0.38" stop-color="#A78D3A" stop-opacity="0.95"/>
<stop offset="0.49" stop-color="#A78D3A" stop-opacity="0.89"/>
<stop offset="0.6" stop-color="#A78D3A" stop-opacity="0.8"/>
<stop offset="0.69" stop-color="#A78D3A" stop-opacity="0.68"/>
<stop offset="0.78" stop-color="#A78D3A" stop-opacity="0.54"/>
<stop offset="0.86" stop-color="#A78D3A" stop-opacity="0.37"/>
<stop offset="0.94" stop-color="#A78D3A" stop-opacity="0.18"/>
<stop offset="1" stop-color="white" stop-opacity="0"/>
</linearGradient>
<linearGradient id="paint7_linear_97_2903" x1="61.7835" y1="34.5735" x2="61.7835" y2="46.4739" gradientUnits="userSpaceOnUse">
<stop stop-color="#A78D3A"/>
<stop offset="0.23" stop-color="#A78D3A" stop-opacity="0.99"/>
<stop offset="0.38" stop-color="#A78D3A" stop-opacity="0.95"/>
<stop offset="0.49" stop-color="#A78D3A" stop-opacity="0.89"/>
<stop offset="0.6" stop-color="#A78D3A" stop-opacity="0.8"/>
<stop offset="0.69" stop-color="#A78D3A" stop-opacity="0.68"/>
<stop offset="0.78" stop-color="#A78D3A" stop-opacity="0.54"/>
<stop offset="0.86" stop-color="#A78D3A" stop-opacity="0.37"/>
<stop offset="0.94" stop-color="#A78D3A" stop-opacity="0.18"/>
<stop offset="1" stop-color="white" stop-opacity="0"/>
</linearGradient>
</defs>
</svg>
